<?xml version="1.0" encoding="UTF-8"?> <svg xmlns="http://www.w3.org/2000/svg" width="598" height="598" viewBox="0 0 598 598" fill="none"> <path d="M598 299C598 464.133 464.133 598 299 598C133.867 598 0 464.133 0 299C0 133.867 133.867 0 299 0C464.133 0 598 133.867 598 299Z" fill="#F0324C"></path> <path d="M469.397 217.825L303.447 96.7263C302.29 95.8739 300.892 95.4141 299.455 95.4141C298.018 95.4141 296.62 95.8739 295.463 96.7263L133.998 217.825C133.162 218.452 132.484 219.265 132.017 220.199C131.55 221.133 131.307 222.163 131.307 223.207V456.435C131.301 457.322 131.471 458.202 131.806 459.023C132.141 459.845 132.636 460.592 133.261 461.221C133.887 461.851 134.63 462.35 135.45 462.691C136.269 463.032 137.147 463.208 138.035 463.208H465.45C467.235 463.208 468.946 462.499 470.208 461.237C471.469 459.976 472.178 458.264 472.178 456.48V223.252C472.175 222.193 471.921 221.149 471.438 220.206C470.955 219.263 470.255 218.447 469.397 217.825ZM409.386 364.534H337.624V297.257H409.386V364.534ZM324.168 449.752H256.891V377.99H324.168V449.752ZM337.624 377.99H409.386V449.752H337.624V377.99ZM409.386 283.802H330.896C329.112 283.802 327.4 284.511 326.139 285.772C324.877 287.034 324.168 288.745 324.168 290.529V364.534H250.163C248.379 364.534 246.668 365.243 245.406 366.505C244.144 367.767 243.435 369.478 243.435 371.262V449.752H198.584V252.406H409.386V283.802ZM458.723 449.752H422.841V245.678C422.841 243.894 422.133 242.182 420.871 240.921C419.609 239.659 417.898 238.95 416.114 238.95H191.856C190.072 238.95 188.361 239.659 187.099 240.921C185.837 242.182 185.129 243.894 185.129 245.678V449.752H144.762V226.616L299.545 110.541L458.723 226.661V449.752Z" fill="white"></path> </svg> 