<?xml version="1.0" encoding="utf-8"?>

<svg version="1.1" id="Слой_1" xmlns="http://www.w3.org/2000/svg" xmlns:xlink="http://www.w3.org/1999/xlink" x="0px" y="0px"
	 viewBox="0 0 700 270" style="enable-background:new 0 0 700 270;" xml:space="preserve" height="38px">
<style type="text/css">
	.st0{fill:#35519F;}
	.st1{fill:#D21A20;}
</style>
<path class="st0" d="M165.4,95.5h-18.1l-46.1,95h25.2l5.4-14.2h29.5l3,14.2h24.3L165.4,95.5z M141,156.9l12.1-24.6l4.5,24.6H141z"/>
<path class="st0" d="M273.1,124.6c1-21-17-28.5-27.3-28.6c-5.3,0-39.1-0.5-39.1-0.5l-10.9,95h23.1l3.7-35.3l8.1,0.4l12.7,34.9h26.8
	l-15.9-40.1C254.3,150.4,272.2,142.8,273.1,124.6z M241.6,136c-1.2,0.4-16.3,0-16.3,0l1.3-19c0,0,12.9-0.8,16.4,0
	c3.5,0.8,6.2,2.9,6.2,9.6C249.2,133.3,242.8,135.6,241.6,136z"/>
<path class="st0" d="M333.5,126.4h23.6c0,0-1.7-23.4-20.7-29c-15.9-4.8-34-0.4-43.1,12s-16,37.8-11.2,60.5
	c4.9,22.7,36.2,25.6,50.7,16.5c14.4-9.1,18.8-16.7,20.6-30.5c2.2-17.2,2.4-20,2.4-20l-36.9,0.2l-2.4,19.7l14.1-0.3c0,0,0,9.1-6,12.5
	c-4.6,2.6-13,4.2-17.1-0.4c-4.1-4.6-4.5-9.5-2-26.1s5-24.3,13.4-25.7C332.9,113.4,333.5,126.4,333.5,126.4z"/>
<path class="st0" d="M436.2,111.5c-3.9-7.6-10.1-13-18.4-15.2c-8.3-2.2-15.5-0.9-15.5-0.9s-20.4,2.2-29.9,19.4s-7.6,48.7-7.2,53.9
	c0.4,5.1,8.1,17.7,18.4,20.2c10.3,2.5,28.4,3.7,40.6-8.9c12.2-12.6,11.7-25.5,13-34.4C438.4,136.6,440.2,119.2,436.2,111.5z
	 M415,145.3c-0.6,5.2-0.6,12.6-5.4,19.8c-4.7,7.2-11.5,6.3-15.3,4.8c-3.8-1.6-6.5-8.9-6.5-11.9c-0.1-3-0.3-21.3,3.5-31.2
	s11.5-11,11.5-11s2.7-0.7,5.8,0.6c3,1.4,5.3,4.6,6.6,9C416.5,130,415.6,140.1,415,145.3z"/>
<path class="st0" d="M491.7,101.5c-1.1,12.3-4.4,42.6-4.6,48.9c-0.3,6.3,2.1,13.7,11.8,12.9c9.7-0.8,10.2-8.9,11.6-12.6
	c1.3-3.7,7.1-49.3,7.1-55.6c0-6.3-3.4-12.4-10.5-12.1C499.9,83.2,493.3,82.9,491.7,101.5z"/>
<path class="st0" d="M678.5,24.1c-19.4-18.4-51-16.8-102.4-17.3c-51.5-0.5-78.3,10-91.4,25.2s-21,52.5-21,52.5s3.8-14.7,19.2-22.9
	c10.3-5.4,23.6-9.4,40.2-5.8c20.2,4.5,25.6,20.8,26.3,35.2c0.4,9.8-4,60.4-12.4,76.7c-8.4,16.3-25.7,29.9-49.9,25.2
	c-24.2-4.7-31.8-26.5-31.8-26.5s2,40.1,23.2,57.8c25.5,21.3,120.8,17.6,143.9,10.7c23.1-6.8,54.6-10,65.7-78
	C699,89.2,698,42.5,678.5,24.1z M612.9,190.5h-31l10.5-101.8l-31,24.9l3.4-33.6l32-25.2h32.6L612.9,190.5z"/>
<path class="st1" d="M83.6,97.4h25.2c0,0-1-18.7-12.3-30.2c-9.3-9.5-20.2-13.9-37-12.6s-39.7,7.9-47.5,38.6S5.1,152.8,9,165.4
	c3.9,12.6,19.6,26.4,43.8,25.8c26.3-0.7,38.1-15.6,44.4-28.4c6.3-12.9,6.6-14.7,6.6-14.7l-27.1,0.5c0,0-4.4,17.4-17.8,19.7
	c-10.2,1.8-20.3-1.1-26.3-10.3c-6-9.2-1.1-56.2,7.6-68.1c8.7-11.8,17.3-12.7,28.1-11.6C81.2,79.8,83.6,97.4,83.6,97.4z"/>
<g>
	<path d="M153.7,255.3l8.3-45h28.7l-0.9,5.1h-23.4l-2.6,14h22.8l-0.9,5.1h-22.8l-2.9,15.6h25l-0.9,5.1L153.7,255.3L153.7,255.3z"/>
	<path d="M189.2,255.3l19-22.7l-11.2-22.2h5.8l5.1,10.2c1.4,2.7,2.1,4.2,2.3,4.7c0.5,1,1,2.2,1.5,3.6c1.3-2,3.4-4.7,6.2-8.1
		l8.7-10.4h6.9l-19.2,23.2l10.9,21.7h-5.8l-6.4-13.2c-0.6-1.3-1.4-2.9-2.2-5c-1,1.5-2.2,3.1-3.6,4.8l-11.1,13.4H189.2z"/>
	<path d="M233.2,255.3l8.3-45H258c2.9,0,5,0.4,6.5,1.1s2.6,2,3.6,3.8c0.9,1.8,1.4,3.8,1.4,6.1c0,1.9-0.3,3.8-1,5.7s-1.5,3.5-2.5,4.8
		c-1,1.3-2.1,2.2-3.1,2.8s-2.2,1.1-3.4,1.4c-2.5,0.7-5.1,1-7.7,1h-9.9l-3.4,18.2L233.2,255.3L233.2,255.3z M242.8,232h8.8
		c3.4,0,5.9-0.4,7.5-1.2c1.6-0.8,2.9-2.1,3.8-3.8c1-1.7,1.4-3.5,1.4-5.4c0-1.5-0.3-2.7-0.8-3.6c-0.5-0.9-1.2-1.6-2.1-2.1
		c-0.9-0.4-2.7-0.7-5.3-0.7h-10.2L242.8,232z"/>
	<path d="M273.1,255.3l8.3-45h16.7c3.3,0,5.8,0.3,7.5,0.9c1.7,0.6,3,1.8,4,3.5c1,1.7,1.5,3.9,1.5,6.5c0,3.7-1.1,6.7-3.2,9.1
		c-2.1,2.4-5.5,4-10.2,4.7c1.4,1.2,2.5,2.4,3.3,3.6c1.7,2.6,3,5.4,4,8.2l3,8.5H302l-2.8-8.4c-1-3-2.2-5.6-3.5-7.8
		c-0.9-1.5-1.8-2.5-2.8-3c-0.9-0.5-2.5-0.7-4.6-0.7h-6.2l-3.7,20L273.1,255.3L273.1,255.3z M283,230.5h7.3c3.4,0,5.6-0.1,6.6-0.2
		c2-0.2,3.7-0.7,4.9-1.5c1.3-0.8,2.3-1.9,3-3.2s1.1-2.8,1.1-4.4c0-1.3-0.3-2.4-0.8-3.4c-0.5-1-1.2-1.6-2.1-2
		c-0.8-0.3-2.3-0.5-4.3-0.5h-12.9L283,230.5z"/>
	<path d="M315.9,255.3l8.3-45h28.7l-0.9,5.1h-23.4l-2.6,14h22.8l-0.9,5.1H325l-2.9,15.6h25l-0.9,5.1L315.9,255.3L315.9,255.3z"/>
	<path d="M357.1,240.8l5.2-0.5l-0.1,1.6c0,1.7,0.4,3.3,1.1,4.8c0.7,1.4,1.9,2.6,3.5,3.3c1.6,0.8,3.6,1.2,5.8,1.2
		c3.2,0,5.6-0.8,7.3-2.4c1.7-1.6,2.5-3.4,2.5-5.4c0-1.4-0.4-2.7-1.3-3.9c-0.9-1.1-3.4-2.7-7.4-4.7c-3.1-1.5-5.3-2.7-6.4-3.5
		c-1.8-1.3-3.1-2.8-4-4.3c-0.8-1.6-1.3-3.3-1.3-5.3c0-2.3,0.6-4.4,1.7-6.3c1.1-1.9,2.8-3.3,4.9-4.3c2.2-1,4.6-1.5,7.3-1.5
		c3.2,0,6,0.6,8.2,1.8c2.2,1.2,3.8,2.9,4.8,4.9c1,2,1.5,4,1.5,5.9c0,0.2,0,0.5,0,0.9l-5.1,0.5c0-1.3-0.1-2.3-0.3-3
		c-0.4-1.3-0.9-2.3-1.7-3.2s-1.8-1.6-3.1-2.1c-1.3-0.5-2.8-0.8-4.5-0.8c-2.9,0-5.1,0.7-6.7,2.2c-1.2,1.1-1.8,2.6-1.8,4.5
		c0,1.1,0.3,2.1,0.8,3c0.5,0.9,1.4,1.7,2.7,2.6c0.9,0.6,3.2,1.8,6.7,3.5c2.9,1.4,4.8,2.6,5.9,3.4c1.4,1.1,2.6,2.4,3.3,3.9
		s1.2,3.3,1.2,5.3c0,2.4-0.7,4.7-2,6.7c-1.3,2.1-3.1,3.6-5.4,4.8c-2.3,1.1-5,1.7-7.9,1.7c-4.5,0-8.2-1.1-11-3.3
		C358.5,250.6,357.1,246.6,357.1,240.8z"/>
	<path d="M396.8,240.8l5.2-0.5l-0.1,1.6c0,1.7,0.4,3.3,1.1,4.8c0.7,1.4,1.9,2.6,3.5,3.3c1.6,0.8,3.6,1.2,5.8,1.2
		c3.2,0,5.6-0.8,7.3-2.4c1.7-1.6,2.5-3.4,2.5-5.4c0-1.4-0.4-2.7-1.3-3.9c-0.9-1.1-3.4-2.7-7.4-4.7c-3.1-1.5-5.3-2.7-6.4-3.5
		c-1.8-1.3-3.1-2.8-4-4.3c-0.8-1.6-1.3-3.3-1.3-5.3c0-2.3,0.6-4.4,1.7-6.3c1.1-1.9,2.8-3.3,4.9-4.3c2.2-1,4.6-1.5,7.3-1.5
		c3.2,0,6,0.6,8.2,1.8c2.2,1.2,3.8,2.9,4.8,4.9c1,2,1.5,4,1.5,5.9c0,0.2,0,0.5,0,0.9l-5.1,0.5c0-1.3-0.1-2.3-0.3-3
		c-0.4-1.3-0.9-2.3-1.7-3.2s-1.8-1.6-3.1-2.1c-1.3-0.5-2.8-0.8-4.5-0.8c-2.9,0-5.1,0.7-6.7,2.2c-1.2,1.1-1.8,2.6-1.8,4.5
		c0,1.1,0.3,2.1,0.8,3c0.5,0.9,1.4,1.7,2.7,2.6c0.9,0.6,3.2,1.8,6.7,3.5c2.9,1.4,4.8,2.6,5.9,3.4c1.4,1.1,2.6,2.4,3.3,3.9
		s1.2,3.3,1.2,5.3c0,2.4-0.7,4.7-2,6.7c-1.3,2.1-3.1,3.6-5.4,4.8c-2.3,1.1-5,1.7-7.9,1.7c-4.5,0-8.2-1.1-11-3.3
		C398.3,250.6,396.8,246.6,396.8,240.8z"/>
</g>
</svg>
