<?xml version="1.0" encoding="UTF-8"?> <svg xmlns="http://www.w3.org/2000/svg" width="101" height="101" viewBox="0 0 101 101" fill="none"> <path d="M69.5501 58.9027C69.5451 58.9027 69.5391 58.9027 69.5341 58.9027C69.0111 58.8967 68.5291 58.6197 68.2611 58.1707L54.0031 34.2257C53.9631 34.1587 53.9291 34.0897 53.9001 34.0177C52.1221 31.0987 51.1841 27.7537 51.1841 24.3247C51.2021 14.0137 59.5981 5.63574 69.9041 5.63574C69.9121 5.63574 69.9191 5.63574 69.9271 5.63574C74.9301 5.64274 79.6271 7.59674 83.1531 11.1367C86.6771 14.6737 88.6131 19.3757 88.6061 24.3747C88.6061 27.7527 87.6721 31.0797 85.9021 34.0167C85.8681 34.1127 85.8231 34.2047 85.7681 34.2937L70.8231 58.1987C70.5471 58.6357 70.0661 58.9027 69.5501 58.9027ZM56.7191 32.9227L69.5811 54.5237L83.0571 32.9687C83.0911 32.8767 83.1341 32.7867 83.1871 32.7017C84.7691 30.1747 85.6051 27.2947 85.6051 24.3737C85.6051 24.3727 85.6051 24.3727 85.6051 24.3717C85.6121 20.1717 83.9861 16.2237 81.0271 13.2527C78.0671 10.2817 74.1231 8.64174 69.9231 8.63474C69.9171 8.63474 69.9101 8.63474 69.9031 8.63474C61.2481 8.63474 54.1981 15.6697 54.1841 24.3267C54.1841 27.2807 55.0151 30.1627 56.5861 32.6587C56.6401 32.7417 56.6841 32.8307 56.7191 32.9227Z" fill="#F0324C"></path> <path d="M69.9091 31.3517C69.9041 31.3517 69.8991 31.3517 69.8931 31.3517C67.7811 31.3517 65.7921 30.5267 64.2971 29.0287C62.8001 27.5287 61.9781 25.5367 61.9821 23.4177C61.9841 21.3057 62.8101 19.3187 64.3081 17.8247C65.8041 16.3337 67.7901 15.5127 69.9031 15.5127C69.9051 15.5127 69.9081 15.5127 69.9111 15.5127C74.2761 15.5177 77.8251 19.0757 77.8211 23.4447C77.8191 25.5597 76.9931 27.5477 75.4951 29.0417C74.0001 30.5317 72.0171 31.3517 69.9091 31.3517ZM69.9021 18.5127C68.5901 18.5127 67.3551 19.0227 66.4261 19.9497C65.4961 20.8767 64.9831 22.1107 64.9821 23.4227C64.9801 24.7397 65.4911 25.9777 66.4211 26.9097C67.3491 27.8397 68.5841 28.3517 69.8961 28.3517C69.8991 28.3517 69.9021 28.3517 69.9061 28.3517C71.2181 28.3517 72.4491 27.8427 73.3771 26.9177C74.3071 25.9907 74.8201 24.7557 74.8211 23.4427C74.8231 20.7287 72.6191 18.5167 69.9071 18.5137C69.9061 18.5127 69.9041 18.5127 69.9021 18.5127ZM76.3211 23.4437H76.3311H76.3211Z" fill="#F0324C"></path> <path d="M94.399 80.1805H4.54104C4.03704 80.1805 3.56704 79.9275 3.28904 79.5065C3.01204 79.0865 2.96404 78.5545 3.16204 78.0905L19.507 39.8485C19.743 39.2965 20.286 38.9375 20.886 38.9375H59.454C60.283 38.9375 60.954 39.6085 60.954 40.4375C60.954 41.2665 60.283 41.9375 59.454 41.9375H21.876L6.81304 77.1795H92.126L77.528 43.0295C77.202 42.2675 77.556 41.3865 78.318 41.0605C79.077 40.7355 79.961 41.0875 80.287 41.8505L95.778 78.0895C95.976 78.5535 95.928 79.0855 95.651 79.5055C95.373 79.9275 94.903 80.1805 94.399 80.1805Z" fill="#F0324C"></path> <path d="M69.727 79.912C68.975 79.912 68.326 79.348 68.239 78.582C68.23 78.508 67.272 71.128 56.939 69.375C55.978 69.212 54.445 69.063 52.669 68.892C42.89 67.946 33.97 66.718 32.25 62.145C31.14 59.195 32.762 56.946 34.064 55.139C35.49 53.161 35.96 52.297 35.232 51.056C34.771 50.27 33.303 49.63 31.883 49.011C29.103 47.799 25.295 46.139 25.275 41.589C25.271 40.76 25.94 40.086 26.768 40.082C26.77 40.082 26.773 40.082 26.775 40.082C27.601 40.082 28.271 40.749 28.275 41.575C28.286 43.995 30.099 44.96 33.083 46.261C34.943 47.072 36.866 47.91 37.821 49.539C39.606 52.583 37.81 55.075 36.499 56.894C35.269 58.6 34.541 59.715 35.059 61.089C36.264 64.292 47.54 65.382 52.959 65.907C54.792 66.084 56.375 66.237 57.441 66.418C69.973 68.545 71.175 77.848 71.22 78.243C71.314 79.066 70.723 79.809 69.9 79.903C69.842 79.909 69.784 79.912 69.727 79.912Z" fill="#F0324C"></path> </svg> 