<?xml version="1.0" encoding="UTF-8"?> <svg xmlns="http://www.w3.org/2000/svg" width="598" height="598" viewBox="0 0 598 598" fill="none"> <path d="M598 299C598 464.133 464.133 598 299 598C133.867 598 0 464.133 0 299C0 133.867 133.867 0 299 0C464.133 0 598 133.867 598 299Z" fill="#F0324C"></path> <path d="M429.569 252.406H407.547C407.547 252.406 407.547 252.092 407.233 251.957L336.727 186.25C338.925 181.312 339.979 175.942 339.811 170.54C339.642 165.138 338.256 159.843 335.754 155.052C333.253 150.261 329.702 146.097 325.366 142.871C321.03 139.644 316.021 137.439 310.713 136.42V102.154C310.713 100.369 310.004 98.658 308.742 97.3963C307.481 96.1346 305.769 95.4258 303.985 95.4258C302.201 95.4258 300.489 96.1346 299.228 97.3963C297.966 98.658 297.257 100.369 297.257 102.154V142.52C297.257 144.304 297.966 146.015 299.228 147.277C300.489 148.539 302.201 149.248 303.985 149.248C307.311 149.247 310.595 149.986 313.6 151.411C316.605 152.836 319.255 154.912 321.359 157.488C323.463 160.064 324.967 163.076 325.763 166.305C326.559 169.534 326.627 172.9 325.962 176.158L308.56 160.012C307.326 158.909 305.73 158.299 304.075 158.299C302.42 158.299 300.823 158.909 299.59 160.012L282.053 175.665C281.769 174.352 281.604 173.016 281.559 171.673C281.559 169.889 280.85 168.178 279.589 166.916C278.327 165.654 276.616 164.946 274.832 164.946C273.047 164.946 271.336 165.654 270.074 166.916C268.813 168.178 268.104 169.889 268.104 171.673C268.114 176.401 269.06 181.081 270.885 185.443L196.341 251.868C196.197 252.04 196.063 252.219 195.938 252.406H173.916C172.131 252.406 170.42 253.115 169.158 254.376C167.897 255.638 167.188 257.349 167.188 259.134V465.45C167.188 467.235 167.897 468.946 169.158 470.208C170.42 471.469 172.131 472.178 173.916 472.178H429.569C431.353 472.178 433.065 471.469 434.326 470.208C435.588 468.946 436.297 467.235 436.297 465.45V259.134C436.297 257.349 435.588 255.638 434.326 254.376C433.065 253.115 431.353 252.406 429.569 252.406ZM303.985 174.05L319.145 188.179C314.953 192.126 309.392 194.29 303.634 194.215C297.877 194.14 292.374 191.83 288.287 187.775L303.985 174.05ZM278.375 196.79C285.013 203.544 294.051 207.399 303.519 207.517C312.988 207.635 322.119 204.004 328.922 197.418L387.992 252.406H215.986L278.375 196.79ZM422.841 458.723H180.643V265.861H422.841V458.723Z" fill="white"></path> <path d="M254.649 400.416C256.433 400.416 258.144 399.707 259.406 398.445C260.668 397.183 261.376 395.472 261.376 393.688V330.896C261.376 329.111 260.668 327.4 259.406 326.138C258.144 324.877 256.433 324.168 254.649 324.168C252.864 324.168 251.153 324.877 249.891 326.138C248.63 327.4 247.921 329.111 247.921 330.896V393.688C247.921 395.472 248.63 397.183 249.891 398.445C251.153 399.707 252.864 400.416 254.649 400.416Z" fill="white"></path> <path d="M303.985 400.416C305.769 400.416 307.481 399.707 308.742 398.445C310.004 397.183 310.713 395.472 310.713 393.688V330.896C310.713 329.111 310.004 327.4 308.742 326.138C307.481 324.877 305.769 324.168 303.985 324.168C302.201 324.168 300.49 324.877 299.228 326.138C297.966 327.4 297.257 329.111 297.257 330.896V393.688C297.257 395.472 297.966 397.183 299.228 398.445C300.49 399.707 302.201 400.416 303.985 400.416V400.416Z" fill="white"></path> <path d="M348.837 400.416C350.621 400.416 352.332 399.707 353.594 398.445C354.856 397.183 355.564 395.472 355.564 393.688V330.896C355.564 329.111 354.856 327.4 353.594 326.138C352.332 324.877 350.621 324.168 348.837 324.168C347.052 324.168 345.341 324.877 344.079 326.138C342.818 327.4 342.109 329.111 342.109 330.896V393.688C342.109 395.472 342.818 397.183 344.079 398.445C345.341 399.707 347.052 400.416 348.837 400.416Z" fill="white"></path> </svg> 