<?xml version="1.0" encoding="UTF-8"?> <svg xmlns="http://www.w3.org/2000/svg" width="598" height="598" viewBox="0 0 598 598" fill="none"> <path d="M598 299C598 464.133 464.133 598 299 598C133.867 598 0 464.133 0 299C0 133.867 133.867 0 299 0C464.133 0 598 133.867 598 299Z" fill="#F0324C"></path> <path d="M451.995 140.277H147.005C145.221 140.277 143.51 140.986 142.248 142.248C140.986 143.51 140.277 145.221 140.277 147.005V451.995C140.277 453.779 140.986 455.491 142.248 456.752C143.51 458.014 145.221 458.723 147.005 458.723H451.995C453.779 458.723 455.491 458.014 456.752 456.752C458.014 455.491 458.723 453.779 458.723 451.995V147.005C458.723 145.221 458.014 143.51 456.752 142.248C455.491 140.986 453.779 140.277 451.995 140.277ZM234.465 153.733H364.535V207.555H234.465V153.733ZM445.267 445.267H153.733V153.733H221.01V214.282C221.01 216.067 221.719 217.778 222.981 219.04C224.242 220.301 225.953 221.01 227.738 221.01H371.263C373.047 221.01 374.758 220.301 376.02 219.04C377.281 217.778 377.99 216.067 377.99 214.282V153.733H445.267V445.267Z" fill="white"></path> <path d="M326.411 377.99H292.369C292.631 377.271 292.768 376.513 292.772 375.748V288.287L303.94 299.455C305.216 300.644 306.902 301.291 308.645 301.26C310.388 301.229 312.051 300.523 313.284 299.29C314.517 298.058 315.223 296.395 315.253 294.652C315.284 292.909 314.637 291.222 313.449 289.947L292.772 269.225C291.511 267.965 289.801 267.258 288.018 267.258C286.235 267.258 284.525 267.965 283.264 269.225L262.273 290.036C261.085 291.312 260.438 292.999 260.469 294.742C260.499 296.484 261.205 298.147 262.438 299.38C263.671 300.613 265.334 301.319 267.077 301.349C268.82 301.38 270.506 300.733 271.782 299.545L279.317 292.01V375.748C279.321 376.513 279.458 377.271 279.72 377.99H220.606C220.869 377.271 221.006 376.513 221.01 375.748V288.646L231.909 299.545C233.184 300.733 234.871 301.38 236.614 301.349C238.357 301.319 240.02 300.613 241.252 299.38C242.485 298.147 243.191 296.484 243.222 294.742C243.253 292.999 242.606 291.312 241.417 290.036L220.561 269.18C219.3 267.921 217.59 267.213 215.807 267.213C214.024 267.213 212.314 267.921 211.053 269.18L190.197 290.036C189.009 291.312 188.362 292.999 188.392 294.742C188.423 296.484 189.129 298.147 190.362 299.38C191.594 300.613 193.257 301.319 195 301.349C196.743 301.38 198.43 300.733 199.705 299.545L207.554 291.741V375.748C207.559 376.513 207.695 377.271 207.958 377.99H187.371C185.587 377.99 183.876 378.699 182.614 379.961C181.352 381.222 180.644 382.934 180.644 384.718C180.644 386.502 181.352 388.213 182.614 389.475C183.876 390.737 185.587 391.446 187.371 391.446H326.411C328.195 391.446 329.906 390.737 331.168 389.475C332.43 388.213 333.139 386.502 333.139 384.718C333.139 382.934 332.43 381.222 331.168 379.961C329.906 378.699 328.195 377.99 326.411 377.99Z" fill="white"></path> </svg> 