<?xml version="1.0" encoding="UTF-8"?> <svg xmlns="http://www.w3.org/2000/svg" width="101" height="101" viewBox="0 0 101 101" fill="none"> <path d="M82.492 22.262C82.489 22.211 82.484 22.161 82.477 22.111C82.469 22.062 82.46 22.014 82.448 21.967C82.436 21.92 82.422 21.873 82.405 21.828C82.388 21.782 82.37 21.737 82.348 21.693C82.327 21.65 82.305 21.609 82.28 21.569C82.255 21.527 82.228 21.487 82.199 21.448C82.17 21.41 82.14 21.373 82.108 21.338C82.076 21.303 82.043 21.269 82.008 21.237C81.972 21.204 81.935 21.173 81.895 21.144C81.857 21.116 81.819 21.089 81.778 21.065C81.736 21.039 81.693 21.016 81.649 20.995C81.605 20.974 81.561 20.955 81.515 20.938C81.469 20.921 81.423 20.907 81.375 20.895C81.326 20.882 81.276 20.872 81.225 20.864C81.199 20.86 81.175 20.851 81.149 20.849C69.233 19.657 59.914 17.234 50.288 8.85395C49.663 8.30995 48.714 8.37595 48.172 8.99995C48.137 9.03995 48.111 9.08495 48.081 9.12795C38.401 17.48 30.317 19.703 18.851 20.848C18.084 20.925 17.5 21.57 17.5 22.341V57.472C17.5 57.605 17.518 57.737 17.553 57.865C23.636 80.299 48.169 90.957 49.21 91.4C49.398 91.48 49.598 91.52 49.797 91.52C49.994 91.52 50.193 91.481 50.378 91.403C51.432 90.961 76.246 80.304 82.329 57.866C82.35 57.787 82.366 57.707 82.374 57.625L82.492 56.464C82.497 56.414 82.5 56.363 82.5 56.312V22.342C82.5 22.313 82.494 22.288 82.492 22.262ZM79.402 57.195C74.152 76.294 53.55 86.63 49.8 88.371C46.083 86.625 25.78 76.312 20.499 57.268V23.69C31.368 22.487 39.798 19.996 49.352 11.976C58.82 19.829 68.344 22.45 79.499 23.685V56.234L79.402 57.195Z" fill="#F0324C"></path> <path d="M64 40.8404H62.56C61.768 34.1974 56.061 29.0254 49.151 29.0254C42.241 29.0254 36.534 34.1974 35.743 40.8404H34.001C33.173 40.8404 32.501 41.5114 32.501 42.3404V64.3404C32.501 65.1694 33.173 65.8404 34.001 65.8404H64.001C64.829 65.8404 65.501 65.1694 65.501 64.3404V42.3404C65.5 41.5114 64.828 40.8404 64 40.8404ZM49.15 32.0254C54.402 32.0254 58.754 35.8574 59.527 40.8404H38.773C39.547 35.8574 43.898 32.0254 49.15 32.0254ZM62.5 43.8404V62.8404H35.5V43.8404H62.5Z" fill="#F0324C"></path> </svg> 