<?xml version="1.0" encoding="UTF-8"?> <svg xmlns="http://www.w3.org/2000/svg" width="100" height="100" viewBox="0 0 100 100" fill="none"> <path d="M74 10.5H26C21.8908 10.5053 17.9514 12.14 15.0457 15.0457C12.14 17.9514 10.5053 21.8908 10.5 26V74C10.5053 78.1092 12.14 82.0486 15.0457 84.9543C17.9514 87.86 21.8908 89.4947 26 89.5H74C78.1092 89.4947 82.0486 87.86 84.9543 84.9543C87.86 82.0486 89.4947 78.1092 89.5 74V26C89.4947 21.8908 87.86 17.9514 84.9543 15.0457C82.0486 12.14 78.1092 10.5053 74 10.5V10.5ZM86.5 26V48.5H51.5V13.5H74C77.3144 13.5026 80.4923 14.8205 82.8359 17.1641C85.1795 19.5077 86.4974 22.6856 86.5 26V26ZM26 13.5H48.5V48.5H13.5V26C13.5026 22.6856 14.8205 19.5077 17.1641 17.1641C19.5077 14.8205 22.6856 13.5026 26 13.5V13.5ZM13.5 74V51.5H48.5V86.5H26C22.6856 86.4974 19.5077 85.1795 17.1641 82.8359C14.8205 80.4923 13.5026 77.3144 13.5 74V74ZM74 86.5H51.5V51.5H86.5V74C86.4974 77.3144 85.1795 80.4923 82.8359 82.8359C80.4923 85.1795 77.3144 86.4974 74 86.5Z" fill="#F0324C"></path> <path d="M23 33.5H29.5V40C29.5 40.3978 29.658 40.7794 29.9393 41.0607C30.2206 41.342 30.6022 41.5 31 41.5C31.3978 41.5 31.7794 41.342 32.0607 41.0607C32.342 40.7794 32.5 40.3978 32.5 40V33.5H39C39.3978 33.5 39.7794 33.342 40.0607 33.0607C40.342 32.7794 40.5 32.3978 40.5 32C40.5 31.6022 40.342 31.2206 40.0607 30.9393C39.7794 30.658 39.3978 30.5 39 30.5H32.5V24C32.5 23.6022 32.342 23.2206 32.0607 22.9393C31.7794 22.658 31.3978 22.5 31 22.5C30.6022 22.5 30.2206 22.658 29.9393 22.9393C29.658 23.2206 29.5 23.6022 29.5 24V30.5H23C22.6022 30.5 22.2206 30.658 21.9393 30.9393C21.658 31.2206 21.5 31.6022 21.5 32C21.5 32.3978 21.658 32.7794 21.9393 33.0607C22.2206 33.342 22.6022 33.5 23 33.5Z" fill="#F0324C"></path> <path d="M61 33.5H77C77.3978 33.5 77.7794 33.342 78.0607 33.0607C78.342 32.7794 78.5 32.3978 78.5 32C78.5 31.6022 78.342 31.2206 78.0607 30.9393C77.7794 30.658 77.3978 30.5 77 30.5H61C60.6022 30.5 60.2206 30.658 59.9393 30.9393C59.658 31.2206 59.5 31.6022 59.5 32C59.5 32.3978 59.658 32.7794 59.9393 33.0607C60.2206 33.342 60.6022 33.5 61 33.5V33.5Z" fill="#F0324C"></path> <path d="M77 66.5H61C60.6022 66.5 60.2206 66.658 59.9393 66.9393C59.658 67.2206 59.5 67.6022 59.5 68C59.5 68.3978 59.658 68.7794 59.9393 69.0607C60.2206 69.342 60.6022 69.5 61 69.5H77C77.3978 69.5 77.7794 69.342 78.0607 69.0607C78.342 68.7794 78.5 68.3978 78.5 68C78.5 67.6022 78.342 67.2206 78.0607 66.9393C77.7794 66.658 77.3978 66.5 77 66.5Z" fill="#F0324C"></path> <path d="M34.1199 67.9997L39.0599 63.0597C39.3249 62.7753 39.4691 62.3993 39.4623 62.0106C39.4554 61.622 39.298 61.2513 39.0232 60.9764C38.7484 60.7016 38.3776 60.5442 37.989 60.5373C37.6004 60.5305 37.2243 60.6747 36.9399 60.9397L31.9999 65.8797L27.0599 60.9397C26.7756 60.6747 26.3995 60.5305 26.0109 60.5373C25.6223 60.5442 25.2515 60.7016 24.9767 60.9764C24.7019 61.2513 24.5444 61.622 24.5376 62.0106C24.5307 62.3993 24.675 62.7753 24.9399 63.0597L29.8799 67.9997L24.9399 72.9397C24.7926 73.077 24.6744 73.2426 24.5924 73.4266C24.5104 73.6106 24.4663 73.8092 24.4628 74.0106C24.4592 74.2121 24.4963 74.4121 24.5717 74.5989C24.6471 74.7857 24.7594 74.9553 24.9019 75.0978C25.0443 75.2402 25.214 75.3525 25.4007 75.4279C25.5875 75.5034 25.7876 75.5404 25.989 75.5369C26.1904 75.5333 26.389 75.4892 26.573 75.4073C26.757 75.3253 26.9226 75.2071 27.0599 75.0597L31.9999 70.1197L36.9399 75.0597C37.2243 75.3246 37.6004 75.4689 37.989 75.462C38.3776 75.4552 38.7484 75.2978 39.0232 75.0229C39.298 74.7481 39.4554 74.3773 39.4623 73.9887C39.4691 73.6001 39.3249 73.224 39.0599 72.9397L34.1199 67.9997Z" fill="#F0324C"></path> <path d="M69 64C70.1046 64 71 63.1046 71 62C71 60.8954 70.1046 60 69 60C67.8954 60 67 60.8954 67 62C67 63.1046 67.8954 64 69 64Z" fill="#F0324C"></path> <path d="M69 76C70.1046 76 71 75.1046 71 74C71 72.8954 70.1046 72 69 72C67.8954 72 67 72.8954 67 74C67 75.1046 67.8954 76 69 76Z" fill="#F0324C"></path> </svg> 