<?xml version="1.0" encoding="UTF-8"?> <svg xmlns="http://www.w3.org/2000/svg" width="101" height="101" viewBox="0 0 101 101" fill="none"> <path d="M50.85 52.4902C42.0978 52.4902 33.7042 55.967 27.5155 62.1557C21.3268 68.3444 17.85 76.7381 17.85 85.4902C17.85 85.8881 18.008 86.2696 18.2893 86.5509C18.5706 86.8322 18.9522 86.9902 19.35 86.9902H82.35C82.7478 86.9902 83.1293 86.8322 83.4106 86.5509C83.6919 86.2696 83.85 85.8881 83.85 85.4902C83.85 76.7381 80.3732 68.3444 74.1845 62.1557C67.9958 55.967 59.6021 52.4902 50.85 52.4902ZM20.88 84.0002C21.2521 76.3035 24.5716 69.0451 30.1503 63.7296C35.7291 58.414 43.1393 55.4489 50.845 55.4489C58.5507 55.4489 65.9609 58.414 71.5396 63.7296C77.1184 69.0451 80.4379 76.3035 80.81 84.0002H20.88Z" fill="#F0324C"></path> <path d="M50.3 10.9297C46.5422 10.9297 42.8687 12.044 39.7442 14.1318C36.6196 16.2195 34.1844 19.1869 32.7463 22.6587C31.3082 26.1305 30.932 29.9508 31.6651 33.6364C32.3982 37.322 34.2078 40.7075 36.865 43.3647C39.5222 46.0219 42.9076 47.8315 46.5933 48.5646C50.2789 49.2977 54.0992 48.9215 57.571 47.4834C61.0428 46.0453 64.0102 43.6101 66.0979 40.4855C68.1857 37.361 69.3 33.6875 69.3 29.9297C69.2816 24.8963 67.2739 20.0742 63.7146 16.515C60.1554 12.9558 55.3334 10.9481 50.3 10.9297V10.9297ZM50.3 45.9997C47.1355 45.9997 44.0421 45.0613 41.4109 43.3032C38.7797 41.5451 36.7289 39.0462 35.5179 36.1226C34.3069 33.199 33.9901 29.9819 34.6074 26.8782C35.2248 23.7745 36.7486 20.9236 38.9863 18.686C41.2239 16.4483 44.0749 14.9245 47.1786 14.3071C50.2822 13.6898 53.4993 14.0066 56.4229 15.2176C59.3465 16.4286 61.8454 18.4794 63.6035 21.1106C65.3616 23.7417 66.3 26.8352 66.3 29.9997C66.2816 34.2375 64.59 38.2964 61.5934 41.293C58.5968 44.2896 54.5378 45.9813 50.3 45.9997V45.9997Z" fill="#F0324C"></path> <path d="M25.52 39.9996H27.52C27.9144 39.9944 28.2908 39.834 28.5678 39.5533C28.8448 39.2725 29.0001 38.894 29 38.4996V20.4996C29.0107 20.3966 29.0107 20.2927 29 20.1896C30.907 16.0433 33.9815 12.5429 37.8472 10.117C41.7128 7.691 46.2019 6.44471 50.765 6.53067C55.328 6.61662 59.767 8.03108 63.5385 10.6009C67.3101 13.1707 70.2505 16.7844 72 20.9996V38.4996C71.9886 38.606 71.9886 38.7133 72 38.8196C70.8519 41.6732 69.1529 44.2727 67 46.4696C66.8534 46.6077 66.736 46.7738 66.655 46.9582C66.5739 47.1425 66.5308 47.3413 66.5282 47.5427C66.5257 47.7441 66.5637 47.9439 66.64 48.1303C66.7163 48.3167 66.8294 48.4858 66.9725 48.6275C67.1156 48.7693 67.2857 48.8807 67.4728 48.9553C67.6599 49.0299 67.8601 49.066 68.0614 49.0615C68.2628 49.057 68.4612 49.0121 68.6448 48.9293C68.8283 48.8465 68.9934 48.7276 69.13 48.5796C71.568 46.12 73.498 43.2046 74.81 39.9996H75.48C78.2648 39.9996 80.9355 38.8934 82.9047 36.9242C84.8738 34.9551 85.98 32.2844 85.98 29.4996C85.98 26.7148 84.8738 24.0441 82.9047 22.075C80.9355 20.1059 78.2648 18.9996 75.48 18.9996H74.39C72.2869 14.3764 68.8976 10.4562 64.6267 7.70705C60.3559 4.95793 55.3841 3.49609 50.305 3.49609C45.2259 3.49609 40.2541 4.95793 35.9833 7.70705C31.7125 10.4562 28.3232 14.3764 26.22 18.9996H25.53C22.7453 18.9996 20.0745 20.1059 18.1054 22.075C16.1363 24.0441 15.03 26.7148 15.03 29.4996C15.03 32.2844 16.1363 34.9551 18.1054 36.9242C20.0745 38.8934 22.7453 39.9996 25.53 39.9996H25.52ZM83 29.4996C82.9974 31.4879 82.2064 33.394 80.8004 34.8C79.3945 36.2059 77.4883 36.997 75.5 36.9996H75V21.9996H75.48C76.4663 21.9983 77.4431 22.1913 78.3547 22.5675C79.2664 22.9437 80.095 23.4957 80.7933 24.1922C81.4916 24.8886 82.0459 25.7158 82.4245 26.6264C82.8032 27.5371 82.9987 28.5134 83 29.4996V29.4996ZM25.52 21.9996H26V36.9996H25.52C23.5309 36.9996 21.6233 36.2094 20.2167 34.8029C18.8102 33.3964 18.02 31.4887 18.02 29.4996C18.02 27.5105 18.8102 25.6028 20.2167 24.1963C21.6233 22.7898 23.5309 21.9996 25.52 21.9996V21.9996Z" fill="#F0324C"></path> </svg> 