<?xml version="1.0" encoding="UTF-8"?> <svg xmlns="http://www.w3.org/2000/svg" width="101" height="101" viewBox="0 0 101 101" fill="none"> <path d="M18.22 70.7022C18.22 75.7342 22.314 79.8292 27.347 79.8292C32.38 79.8292 36.474 75.7342 36.474 70.7022C36.474 65.6702 32.38 61.5752 27.347 61.5752C22.314 61.5752 18.22 65.6692 18.22 70.7022ZM33.474 70.7022C33.474 74.0802 30.725 76.8292 27.347 76.8292C23.969 76.8292 21.22 74.0802 21.22 70.7022C21.22 67.3242 23.969 64.5752 27.347 64.5752C30.725 64.5752 33.474 67.3242 33.474 70.7022Z" fill="#F0324C"></path> <path d="M90.219 36.6181C89.601 36.0671 88.654 36.1201 88.101 36.7381L66.314 61.1411L55.098 49.9251C54.512 49.3391 53.563 49.3391 52.977 49.9251C52.391 50.5111 52.391 51.4601 52.977 52.0461L65.316 64.3841C65.598 64.6661 65.979 64.8231 66.377 64.8231C66.391 64.8231 66.405 64.8231 66.419 64.8221C66.831 64.8101 67.221 64.6301 67.496 64.3221L90.34 38.7351C90.891 38.1181 90.837 37.1691 90.219 36.6181Z" fill="#F0324C"></path> <path d="M66.894 68.574C66.065 68.574 65.394 69.246 65.394 70.074V85.001H12.28V15.001H65.394V46.428C65.394 47.256 66.065 47.928 66.894 47.928C67.723 47.928 68.394 47.256 68.394 46.428V13.501C68.394 12.673 67.723 12.001 66.894 12.001H10.78C9.95103 12.001 9.28003 12.673 9.28003 13.501V86.501C9.28003 87.329 9.95103 88.001 10.78 88.001H66.894C67.723 88.001 68.394 87.329 68.394 86.501V70.074C68.394 69.246 67.723 68.574 66.894 68.574Z" fill="#F0324C"></path> <path d="M49.3601 32.2256C50.1891 32.2256 50.8601 31.5536 50.8601 30.7256C50.8601 29.8976 50.1891 29.2256 49.3601 29.2256H19.2241C18.3951 29.2256 17.7241 29.8976 17.7241 30.7256C17.7241 31.5536 18.3951 32.2256 19.2241 32.2256H49.3601Z" fill="#F0324C"></path> <path d="M51.229 44.0703C51.229 43.2423 50.558 42.5703 49.729 42.5703H19.601C18.772 42.5703 18.101 43.2423 18.101 44.0703C18.101 44.8983 18.772 45.5703 19.601 45.5703H49.729C50.558 45.5703 51.229 44.8983 51.229 44.0703Z" fill="#F0324C"></path> </svg> 