<?xml version="1.0" encoding="UTF-8"?> <svg xmlns="http://www.w3.org/2000/svg" width="101" height="101" viewBox="0 0 101 101" fill="none"> <path d="M84.5 15H17.5C17.1022 15 16.7206 15.158 16.4393 15.4393C16.158 15.7206 16 16.1022 16 16.5V83.5C16 83.8978 16.158 84.2794 16.4393 84.5607C16.7206 84.842 17.1022 85 17.5 85H84.5C84.8978 85 85.2794 84.842 85.5607 84.5607C85.842 84.2794 86 83.8978 86 83.5V16.5C86 16.1022 85.842 15.7206 85.5607 15.4393C85.2794 15.158 84.8978 15 84.5 15ZM83 82H19V18H83V82Z" fill="#F0324C"></path> <path d="M40.5 48H60.5C60.8978 48 61.2794 47.842 61.5607 47.5607C61.842 47.2794 62 46.8978 62 46.5V26.5C62 26.1022 61.842 25.7206 61.5607 25.4393C61.2794 25.158 60.8978 25 60.5 25H40.5C40.1022 25 39.7206 25.158 39.4393 25.4393C39.158 25.7206 39 26.1022 39 26.5V46.5C39 46.8978 39.158 47.2794 39.4393 47.5607C39.7206 47.842 40.1022 48 40.5 48ZM42 28H49V31.5C49 31.8978 49.158 32.2794 49.4393 32.5607C49.7206 32.842 50.1022 33 50.5 33C50.8978 33 51.2794 32.842 51.5607 32.5607C51.842 32.2794 52 31.8978 52 31.5V28H59V45H42V28Z" fill="#F0324C"></path> <path d="M53 53.5V73.5C53 73.8978 53.158 74.2794 53.4393 74.5607C53.7206 74.842 54.1022 75 54.5 75H74.5C74.8978 75 75.2794 74.842 75.5607 74.5607C75.842 74.2794 76 73.8978 76 73.5V53.5C76 53.1022 75.842 52.7206 75.5607 52.4393C75.2794 52.158 74.8978 52 74.5 52H54.5C54.1022 52 53.7206 52.158 53.4393 52.4393C53.158 52.7206 53 53.1022 53 53.5V53.5ZM56 55H63V58.5C63 58.8978 63.158 59.2794 63.4393 59.5607C63.7206 59.842 64.1022 60 64.5 60C64.8978 60 65.2794 59.842 65.5607 59.5607C65.842 59.2794 66 58.8978 66 58.5V55H73V72H56V55Z" fill="#F0324C"></path> <path d="M26.5 75H46.5C46.8978 75 47.2794 74.842 47.5607 74.5607C47.842 74.2794 48 73.8978 48 73.5V53.5C48 53.1022 47.842 52.7206 47.5607 52.4393C47.2794 52.158 46.8978 52 46.5 52H26.5C26.1022 52 25.7206 52.158 25.4393 52.4393C25.158 52.7206 25 53.1022 25 53.5V73.5C25 73.8978 25.158 74.2794 25.4393 74.5607C25.7206 74.842 26.1022 75 26.5 75V75ZM28 55H35V58.5C35 58.8978 35.158 59.2794 35.4393 59.5607C35.7206 59.842 36.1022 60 36.5 60C36.8978 60 37.2794 59.842 37.5607 59.5607C37.842 59.2794 38 58.8978 38 58.5V55H45V72H28V55Z" fill="#F0324C"></path> </svg> 