<?xml version="1.0" encoding="UTF-8"?> <svg xmlns="http://www.w3.org/2000/svg" width="598" height="598" viewBox="0 0 598 598" fill="none"> <path d="M598 299C598 464.133 464.133 598 299 598C133.867 598 0 464.133 0 299C0 133.867 133.867 0 299 0C464.133 0 598 133.867 598 299Z" fill="#F0324C"></path> <path d="M427.327 360.049C413.835 360.059 400.839 365.135 390.913 374.272C380.986 383.409 374.854 395.941 373.729 409.386H212.533C210.225 409.379 207.969 408.694 206.046 407.417C204.123 406.14 202.617 404.326 201.714 402.202C200.812 400.077 200.553 397.734 200.969 395.463C201.385 393.192 202.459 391.094 204.056 389.427L404.318 210.38C407.89 206.873 410.336 202.381 411.346 197.478C412.356 192.575 411.883 187.483 409.987 182.85C408.091 178.217 404.859 174.253 400.702 171.464C396.546 168.674 391.652 167.186 386.647 167.188H243.122C241.999 153.544 235.718 140.84 225.559 131.664C215.399 122.487 202.124 117.527 188.437 117.792C174.749 118.058 161.677 123.53 151.881 133.094C142.086 142.659 136.303 155.596 135.71 169.274C135.117 182.952 139.759 196.341 148.691 206.717C157.622 217.092 170.172 223.675 183.785 225.124C197.399 226.572 211.053 222.779 221.968 214.515C232.883 206.252 240.239 194.139 242.539 180.644H386.647C388.955 180.651 391.211 181.336 393.134 182.613C395.057 183.89 396.563 185.703 397.466 187.828C398.368 189.953 398.627 192.296 398.211 194.567C397.794 196.837 396.721 198.936 395.123 200.602L194.862 379.65C191.29 383.157 188.843 387.648 187.834 392.551C186.824 397.454 187.297 402.547 189.193 407.18C191.088 411.813 194.32 415.777 198.477 418.566C202.634 421.355 207.527 422.844 212.533 422.842H374.312C376.023 432.962 380.592 442.382 387.48 449.991C394.368 457.6 403.288 463.081 413.188 465.788C423.089 468.495 433.557 468.314 443.358 465.267C453.159 462.22 461.885 456.435 468.506 448.592C475.127 440.75 479.368 431.178 480.728 421.004C482.089 410.831 480.512 400.481 476.183 391.174C471.855 381.868 464.956 373.993 456.3 368.478C447.643 362.964 437.591 360.039 427.327 360.049V360.049ZM189.614 212.04C181.63 212.04 173.826 209.672 167.188 205.237C160.549 200.801 155.376 194.497 152.32 187.121C149.265 179.745 148.466 171.628 150.023 163.798C151.581 155.968 155.425 148.775 161.071 143.13C166.716 137.485 173.909 133.64 181.739 132.083C189.569 130.525 197.686 131.324 205.062 134.38C212.437 137.435 218.742 142.609 223.177 149.247C227.613 155.885 229.98 163.69 229.98 171.673C229.98 182.379 225.727 192.646 218.157 200.217C210.587 207.787 200.32 212.04 189.614 212.04V212.04ZM427.327 454.238C419.343 454.238 411.539 451.87 404.901 447.435C398.262 442.999 393.088 436.695 390.033 429.319C386.978 421.943 386.179 413.826 387.736 405.996C389.294 398.166 393.138 390.973 398.784 385.328C404.429 379.683 411.621 375.838 419.452 374.281C427.282 372.723 435.398 373.522 442.774 376.578C450.15 379.633 456.455 384.807 460.89 391.445C465.326 398.083 467.693 405.888 467.693 413.871C467.693 424.577 463.44 434.844 455.87 442.415C448.3 449.985 438.033 454.238 427.327 454.238V454.238Z" fill="white"></path> <path d="M449.259 394.585C447.998 393.325 446.288 392.617 444.505 392.617C442.722 392.617 441.012 393.325 439.751 394.585L428.179 406.156L416.562 394.585C415.287 393.396 413.6 392.749 411.857 392.78C410.114 392.811 408.451 393.517 407.219 394.75C405.986 395.982 405.28 397.645 405.249 399.388C405.219 401.131 405.866 402.818 407.054 404.093L418.626 415.665L407.054 427.326C406.393 427.942 405.863 428.685 405.495 429.51C405.127 430.335 404.93 431.226 404.914 432.13C404.898 433.033 405.064 433.93 405.402 434.768C405.741 435.606 406.244 436.367 406.883 437.006C407.522 437.644 408.283 438.148 409.121 438.486C409.958 438.825 410.856 438.991 411.759 438.975C412.662 438.959 413.553 438.761 414.378 438.394C415.204 438.026 415.946 437.496 416.562 436.835L428.134 425.263L439.706 436.835C440.967 438.102 442.679 438.816 444.467 438.82C446.254 438.824 447.97 438.118 449.237 436.857C450.504 435.596 451.218 433.884 451.222 432.096C451.226 430.309 450.52 428.593 449.259 427.326L437.687 415.755L449.259 404.183C449.896 403.557 450.403 402.81 450.748 401.986C451.094 401.162 451.272 400.277 451.272 399.384C451.272 398.49 451.094 397.606 450.748 396.782C450.403 395.958 449.896 395.211 449.259 394.585V394.585Z" fill="white"></path> <path d="M189.614 187.372C198.284 187.372 205.312 180.343 205.312 171.674C205.312 163.004 198.284 155.976 189.614 155.976C180.944 155.976 173.916 163.004 173.916 171.674C173.916 180.343 180.944 187.372 189.614 187.372Z" fill="white"></path> </svg> 