<?xml version="1.0" encoding="UTF-8"?> <svg xmlns="http://www.w3.org/2000/svg" width="598" height="598" viewBox="0 0 598 598" fill="none"> <path d="M598 299C598 464.133 464.133 598 299 598C133.867 598 0 464.133 0 299C0 133.867 133.867 0 299 0C464.133 0 598 133.867 598 299Z" fill="#F0324C"></path> <path d="M483.077 315.198C480.138 311.038 475.901 307.97 471.031 306.477C466.161 304.983 460.933 305.148 456.166 306.946C455.803 303.063 454.444 299.34 452.22 296.136C448.744 291.183 443.455 287.801 437.5 286.726C431.546 285.651 425.408 286.97 420.42 290.395L416.652 292.862C416.217 289.191 414.893 285.681 412.795 282.636C409.282 277.673 403.949 274.299 397.96 273.249C391.97 272.199 385.808 273.558 380.816 277.03L380.502 277.299C350.182 302.774 313.404 328.654 303.985 328.654C297.033 328.654 275.774 316.768 258.73 307.215C237.022 295.06 216.48 283.578 204.908 282.636C182.752 280.932 115.205 320.177 107.67 324.662C106.931 325.095 106.285 325.669 105.767 326.352C105.25 327.035 104.872 327.813 104.656 328.642C104.439 329.47 104.388 330.334 104.505 331.182C104.622 332.031 104.905 332.848 105.338 333.587C105.771 334.327 106.345 334.973 107.028 335.491C107.711 336.008 108.489 336.386 109.318 336.602C110.147 336.819 111.01 336.87 111.859 336.753C112.707 336.636 113.524 336.353 114.264 335.92C141.758 319.773 190.511 294.791 203.967 295.553C212.937 296.226 233.972 308.067 252.586 318.517C277.164 332.287 292.952 340.943 302.864 341.481C303.297 341.524 303.732 341.524 304.165 341.481H349.016C352.942 341.481 356.706 343.041 359.482 345.816C362.258 348.592 363.817 352.357 363.817 356.282C363.817 360.208 362.258 363.972 359.482 366.748C356.706 369.524 352.942 371.083 349.016 371.083H348.568C348.119 371.083 304.389 374.133 286.404 371.083C269.495 368.258 247.921 349.106 247.697 348.927C246.412 347.773 244.722 347.177 242.997 347.269C241.273 347.362 239.656 348.135 238.502 349.42C237.348 350.705 236.752 352.395 236.845 354.119C236.937 355.844 237.711 357.461 238.996 358.615C239.982 359.512 263.619 380.502 284.251 383.956C292.933 385.098 301.688 385.593 310.444 385.436C329.057 385.436 348.254 384.09 349.465 384C356.329 383.234 362.662 379.94 367.231 374.761C371.8 369.582 374.279 362.887 374.184 355.981C374.088 349.075 371.427 342.452 366.716 337.4C362.006 332.349 355.585 329.231 348.702 328.654H333.453C352.526 316.122 370.857 302.494 388.351 287.839C389.962 286.728 391.866 286.118 393.823 286.087C395.78 286.057 397.703 286.606 399.348 287.666C400.993 288.726 402.288 290.249 403.068 292.044C403.849 293.839 404.081 295.825 403.735 297.751C403.513 299.037 403.037 300.266 402.337 301.367C401.636 302.468 400.724 303.419 399.654 304.165L399.205 304.524L398.712 304.927L398.308 305.421L397.904 305.959L397.635 306.497L397.321 307.08C397.321 307.08 397.321 307.439 397.321 307.663C397.311 307.872 397.311 308.082 397.321 308.291C397.321 308.291 397.321 308.695 397.321 308.874C397.31 309.098 397.31 309.323 397.321 309.547C397.321 309.547 397.321 309.951 397.321 310.175C397.311 310.384 397.311 310.594 397.321 310.803C397.311 311.012 397.311 311.222 397.321 311.431C397.321 311.431 397.321 311.834 397.321 312.014C397.415 312.229 397.519 312.438 397.635 312.642L397.86 313.09L398.084 313.359C398.3 313.648 398.54 313.918 398.801 314.167L399.205 314.481L400.012 315.019L400.416 315.198L401.403 315.557H401.762C402.224 315.607 402.69 315.607 403.152 315.557C403.683 315.547 404.21 315.472 404.722 315.333H405.125C405.647 315.158 406.145 314.917 406.606 314.615L427.372 301.16C429.532 299.645 432.204 299.05 434.802 299.504C437.401 299.958 439.713 301.425 441.231 303.582C441.98 304.648 442.511 305.851 442.794 307.122C443.078 308.393 443.108 309.708 442.883 310.991C442.658 312.274 442.182 313.5 441.483 314.599C440.784 315.698 439.876 316.648 438.809 317.396L432.126 321.881C431.387 322.394 430.756 323.047 430.269 323.803C429.782 324.559 429.449 325.404 429.289 326.289C429.128 327.174 429.144 328.082 429.334 328.961C429.525 329.84 429.887 330.673 430.399 331.412C430.912 332.151 431.565 332.782 432.321 333.269C433.077 333.756 433.922 334.089 434.807 334.249C435.692 334.41 436.6 334.394 437.479 334.204C438.358 334.013 439.191 333.651 439.93 333.139L446.523 328.654L458.723 320.446C459.785 319.59 461.013 318.963 462.329 318.604C463.645 318.244 465.021 318.16 466.371 318.357C467.721 318.554 469.016 319.027 470.174 319.748C471.333 320.468 472.33 321.42 473.104 322.543C473.878 323.667 474.411 324.938 474.671 326.277C474.931 327.617 474.912 328.995 474.614 330.326C474.317 331.658 473.748 332.913 472.943 334.015C472.138 335.116 471.114 336.04 469.936 336.727C399.205 386.378 318.966 437.867 307.125 438.002C298.155 438.002 278.958 426.43 261.825 416.249C242.494 404.722 224.284 393.823 211.412 392.163C185.757 388.755 146.108 418.357 141.668 421.945C140.3 422.998 139.406 424.551 139.183 426.262C138.96 427.974 139.427 429.704 140.479 431.072C141.532 432.44 143.085 433.334 144.797 433.557C146.508 433.78 148.239 433.313 149.607 432.261C160.461 423.918 192.395 402.748 209.708 405.036C219.934 406.381 238.637 417.549 255.187 427.462C275.55 439.616 294.791 451.053 307.125 451.053C328.699 451.053 452.758 364.714 477.561 347.402L478.144 346.908C482.944 343.313 486.147 337.984 487.069 332.058C487.991 326.133 486.558 320.082 483.077 315.198V315.198Z" fill="white"></path> <path d="M252.809 195.669C262.19 195.677 271.362 192.903 279.165 187.698C286.968 182.492 293.051 175.088 296.645 166.424C300.239 157.759 301.181 148.223 299.354 139.023C297.526 129.822 293.01 121.371 286.377 114.738C279.744 108.105 271.293 103.589 262.092 101.761C252.892 99.9335 243.356 100.876 234.691 104.47C226.027 108.064 218.623 114.147 213.417 121.95C208.211 129.753 205.437 138.925 205.446 148.305C205.47 160.86 210.468 172.893 219.345 181.77C228.222 190.647 240.255 195.645 252.809 195.669V195.669ZM252.809 113.904C259.604 113.904 266.247 115.919 271.897 119.694C277.547 123.47 281.95 128.835 284.55 135.113C287.151 141.391 287.831 148.299 286.506 154.963C285.18 161.628 281.908 167.749 277.103 172.554C272.298 177.359 266.176 180.631 259.512 181.957C252.848 183.282 245.94 182.602 239.662 180.002C233.384 177.401 228.018 172.998 224.243 167.348C220.468 161.698 218.453 155.056 218.453 148.261C218.465 139.152 222.089 130.421 228.529 123.98C234.97 117.54 243.701 113.916 252.809 113.904V113.904Z" fill="white"></path> <path d="M370.006 184.725C377.209 184.725 384.251 182.589 390.24 178.587C396.229 174.585 400.897 168.897 403.653 162.242C406.41 155.588 407.131 148.265 405.726 141.2C404.321 134.135 400.852 127.646 395.759 122.553C390.665 117.459 384.176 113.991 377.111 112.586C370.047 111.18 362.724 111.902 356.069 114.658C349.414 117.415 343.727 122.082 339.725 128.072C335.723 134.061 333.587 141.102 333.587 148.305C333.599 157.961 337.44 167.217 344.267 174.044C351.094 180.872 360.351 184.713 370.006 184.725ZM370.006 124.938C374.626 124.946 379.14 126.324 382.976 128.897C386.813 131.471 389.801 135.123 391.563 139.394C393.325 143.664 393.781 148.361 392.875 152.891C391.968 157.421 389.739 161.581 386.469 164.844C383.199 168.108 379.035 170.329 374.504 171.227C369.972 172.125 365.276 171.66 361.009 169.89C356.741 168.12 353.095 165.125 350.529 161.283C347.963 157.441 346.594 152.925 346.594 148.305C346.594 142.096 349.061 136.141 353.451 131.75C357.842 127.359 363.797 124.893 370.006 124.893V124.938Z" fill="white"></path> <path d="M262.273 249.715C262.273 259.091 265.054 268.257 270.263 276.053C275.472 283.849 282.877 289.926 291.539 293.514C300.202 297.102 309.734 298.041 318.93 296.212C328.127 294.382 336.574 289.867 343.204 283.237C349.834 276.607 354.349 268.16 356.179 258.964C358.008 249.767 357.069 240.235 353.481 231.572C349.893 222.91 343.816 215.506 336.02 210.296C328.224 205.087 319.058 202.307 309.681 202.307C297.112 202.319 285.06 207.317 276.172 216.205C267.284 225.093 262.285 237.145 262.273 249.715V249.715ZM309.681 215.358C316.476 215.358 323.119 217.373 328.769 221.148C334.419 224.924 338.822 230.289 341.422 236.567C344.023 242.845 344.703 249.753 343.378 256.417C342.052 263.082 338.78 269.203 333.975 274.008C329.17 278.813 323.048 282.085 316.384 283.411C309.72 284.736 302.812 284.056 296.534 281.456C290.256 278.855 284.89 274.452 281.115 268.802C277.34 263.152 275.325 256.51 275.325 249.715C275.337 240.606 278.961 231.875 285.401 225.434C291.841 218.994 300.573 215.37 309.681 215.358V215.358Z" fill="white"></path> </svg> 