<?xml version="1.0" encoding="UTF-8"?> <svg xmlns="http://www.w3.org/2000/svg" width="101" height="101" viewBox="0 0 101 101" fill="none"> <path d="M98.1101 52.0897L80.7101 42.4197C80.1052 42.2029 79.4475 42.1819 78.8301 42.3597C68.9301 47.3597 53.0701 55.2097 49.7501 56.5597C46.3501 55.1697 30.5801 47.3497 20.7501 42.3897C20.529 42.2698 20.2815 42.207 20.0301 42.207C19.7786 42.207 19.5311 42.2698 19.3101 42.3897L2.86006 52.1097C2.62857 52.2469 2.43825 52.4439 2.30906 52.68C2.17987 52.916 2.11655 53.1825 2.12576 53.4514C2.13496 53.7203 2.21634 53.9819 2.36137 54.2085C2.5064 54.4352 2.70973 54.6187 2.95006 54.7397C9.70006 58.1397 14.9501 60.7397 19.0001 62.7397V77.5697C18.9993 77.8396 19.0714 78.1046 19.2087 78.3369C19.3459 78.5692 19.5433 78.7602 19.7801 78.8897L48.0001 94.3897C48.0497 94.597 48.144 94.7909 48.2765 94.9577C48.409 95.1246 48.5764 95.2605 48.767 95.3558C48.9576 95.4511 49.1668 95.5035 49.3798 95.5094C49.5928 95.5152 49.8045 95.4744 50.0001 95.3897C50.1891 95.4511 50.3885 95.4738 50.5865 95.4565C50.7844 95.4392 50.9769 95.3821 51.1523 95.2888C51.3278 95.1955 51.4826 95.0678 51.6077 94.9133C51.7327 94.7588 51.8253 94.5808 51.8801 94.3897L80.2201 78.8897C80.4553 78.761 80.6517 78.5716 80.7889 78.3412C80.9261 78.1108 80.999 77.8479 81.0001 77.5797V63.4997C81.0065 63.4199 81.0065 63.3396 81.0001 63.2597C85.2101 61.1897 90.7601 58.4397 98.0801 54.7497C98.3232 54.6267 98.5281 54.4397 98.673 54.2089C98.8178 53.9781 98.8971 53.7122 98.9022 53.4398C98.9074 53.1673 98.8382 52.8987 98.7022 52.6626C98.5661 52.4265 98.3683 52.2319 98.1301 52.0997L98.1101 52.0897ZM20.1101 45.4397C35.8201 53.3497 43.1701 56.8797 46.6801 58.4397L33.4001 66.2697C30.4001 65.0897 16.6701 58.2697 6.75006 53.2697L20.1101 45.4397ZM22.0001 64.2197C32.6201 69.3897 33.2901 69.3997 33.5801 69.3997C33.8476 69.3988 34.11 69.3263 34.3401 69.1897L47.9901 61.1897V90.9397L22.0001 76.6797V64.2197ZM78.0001 76.6897L51.0001 91.4997V60.4997L66.6901 69.2097C66.9134 69.3338 67.1646 69.3992 67.4201 69.3997C67.7101 69.3997 68.3301 69.3997 78.0001 64.7097V76.6897ZM67.5801 66.2797L53.2001 58.2797C56.8601 56.6197 64.3101 53.0297 79.6901 45.2797L94.1701 53.2797C84.2401 58.3197 70.4901 65.1197 67.5801 66.2797Z" fill="#F0324C"></path> <path d="M48.9401 45.06C49.2213 45.3409 49.6026 45.4987 50.0001 45.4987C50.3976 45.4987 50.7788 45.3409 51.0601 45.06L58.0601 38.06C58.325 37.7757 58.4693 37.3996 58.4624 37.011C58.4556 36.6224 58.2981 36.2516 58.0233 35.9768C57.7485 35.7019 57.3777 35.5445 56.9891 35.5377C56.6005 35.5308 56.2244 35.675 55.9401 35.94L52.0001 39.88V9.5C52.0001 9.10218 51.842 8.72064 51.5607 8.43934C51.2794 8.15804 50.8979 8 50.5001 8C50.1022 8 49.7207 8.15804 49.4394 8.43934C49.1581 8.72064 49.0001 9.10218 49.0001 9.5V40.88L44.0601 35.94C43.7757 35.675 43.3996 35.5308 43.011 35.5377C42.6224 35.5445 42.2516 35.7019 41.9768 35.9768C41.702 36.2516 41.5446 36.6224 41.5377 37.011C41.5309 37.3996 41.6751 37.7757 41.9401 38.06L48.9401 45.06Z" fill="#F0324C"></path> <path d="M26.94 37.06C27.2212 37.3409 27.6025 37.4987 28 37.4987C28.3975 37.4987 28.7787 37.3409 29.06 37.06L34.64 31.48C34.9049 31.1956 35.0492 30.8196 35.0423 30.431C35.0355 30.0424 34.8781 29.6716 34.6032 29.3968C34.3284 29.1219 33.9576 28.9645 33.569 28.9576C33.1804 28.9508 32.8043 29.095 32.52 29.36L30 31.88V8.5C30 8.10218 29.8419 7.72064 29.5606 7.43934C29.2793 7.15804 28.8978 7 28.5 7C28.1022 7 27.7206 7.15804 27.4393 7.43934C27.158 7.72064 27 8.10218 27 8.5V32.88L23.48 29.36C23.1956 29.095 22.8195 28.9508 22.4309 28.9576C22.0423 28.9645 21.6716 29.1219 21.3967 29.3968C21.1219 29.6716 20.9645 30.0424 20.9576 30.431C20.9508 30.8196 21.095 31.1956 21.36 31.48L26.94 37.06Z" fill="#F0324C"></path> <path d="M70.94 36.06C71.2212 36.3409 71.6025 36.4987 72 36.4987C72.3975 36.4987 72.7787 36.3409 73.06 36.06L78.64 30.48C78.9049 30.1956 79.0492 29.8196 79.0423 29.431C79.0355 29.0424 78.878 28.6716 78.6032 28.3968C78.3284 28.1219 77.9576 27.9645 77.569 27.9576C77.1804 27.9508 76.8043 28.095 76.52 28.36L74 30.88V7.5C74 7.10218 73.8419 6.72064 73.5606 6.43934C73.2793 6.15804 72.8978 6 72.5 6C72.1022 6 71.7206 6.15804 71.4393 6.43934C71.158 6.72064 71 7.10218 71 7.5V31.88L67.48 28.36C67.1956 28.095 66.8195 27.9508 66.4309 27.9576C66.0423 27.9645 65.6716 28.1219 65.3967 28.3968C65.1219 28.6716 64.9645 29.0424 64.9576 29.431C64.9508 29.8196 65.095 30.1956 65.36 30.48L70.94 36.06Z" fill="#F0324C"></path> </svg> 