<?xml version="1.0" encoding="UTF-8"?> <svg xmlns="http://www.w3.org/2000/svg" width="101" height="101" viewBox="0 0 101 101" fill="none"> <path d="M56.939 45.9425C56.939 46.7455 57.589 47.3955 58.392 47.3955C59.195 47.3955 59.845 46.7455 59.845 45.9425C59.845 41.9105 56.275 38.5705 51.637 37.9835V31.8075C51.637 31.0045 50.987 30.3545 50.184 30.3545C49.381 30.3545 48.731 31.0045 48.731 31.8075V37.9835C44.093 38.5715 40.523 41.9115 40.523 45.9425C40.523 49.9715 44.092 53.3105 48.731 53.8985V64.1895C45.703 63.6815 43.428 61.6185 43.428 59.1545C43.428 58.3515 42.778 57.7015 41.975 57.7015C41.172 57.7015 40.522 58.3515 40.522 59.1545C40.522 63.1895 44.093 66.5315 48.731 67.1175V73.2905C48.731 74.0935 49.381 74.7435 50.184 74.7435C50.987 74.7435 51.637 74.0935 51.637 73.2905V67.1165C56.276 66.5265 59.844 63.1865 59.844 59.1555C59.844 55.1255 56.275 51.7865 51.637 51.1975V40.9115C54.666 41.4205 56.939 43.4815 56.939 45.9425ZM43.43 45.9425C43.43 43.4815 45.704 41.4215 48.732 40.9125V50.9705C45.704 50.4615 43.43 48.4015 43.43 45.9425ZM56.938 59.1535C56.938 61.6145 54.665 63.6755 51.637 64.1865V54.1235C54.666 54.6345 56.938 56.6945 56.938 59.1535Z" fill="#F0324C"></path> <path d="M50.1769 24.291C34.5969 24.291 21.9219 36.966 21.9219 52.546C21.9219 68.126 34.5969 80.801 50.1769 80.801C65.7569 80.801 78.4319 68.126 78.4319 52.546C78.4319 36.966 65.7569 24.291 50.1769 24.291ZM50.1769 77.895C36.1989 77.895 24.8279 66.524 24.8279 52.546C24.8279 38.568 36.1989 27.197 50.1769 27.197C64.1549 27.197 75.5259 38.568 75.5259 52.546C75.5259 66.524 64.1539 77.895 50.1769 77.895Z" fill="#F0324C"></path> <path d="M98.827 87.2287C98.252 86.6707 97.332 86.6837 96.772 87.2597L91.563 92.6317V45.3007C91.563 44.4977 90.913 43.8477 90.11 43.8477C89.307 43.8477 88.657 44.4977 88.657 45.3007V92.7017L83.325 87.2027C82.765 86.6267 81.846 86.6137 81.27 87.1717C80.694 87.7307 80.68 88.6507 81.239 89.2267L89.033 97.2637C89.306 97.5457 89.682 97.7047 90.076 97.7047C90.47 97.7047 90.846 97.5457 91.119 97.2637L98.858 89.2837C99.417 88.7067 99.403 87.7867 98.827 87.2287Z" fill="#F0324C"></path> <path d="M11.36 2.42327C11.315 2.37827 11.257 2.36027 11.209 2.32227C11.186 2.30627 11.163 2.29027 11.139 2.27527C10.573 1.89027 9.80795 1.92227 9.30595 2.42427L1.51095 10.2163C0.943952 10.7833 0.942952 11.7043 1.51095 12.2713C1.79495 12.5553 2.16595 12.6973 2.53795 12.6973C2.90995 12.6973 3.28195 12.5553 3.56495 12.2713L8.91295 6.92527V52.8603C8.91295 53.6633 9.56295 54.3133 10.366 54.3133C11.169 54.3133 11.819 53.6633 11.819 52.8603V6.99127L17.048 12.2163C17.616 12.7843 18.536 12.7823 19.103 12.2163C19.67 11.6483 19.67 10.7283 19.103 10.1613L11.36 2.42327Z" fill="#F0324C"></path> </svg> 