<?xml version="1.0" encoding="UTF-8"?> <svg xmlns="http://www.w3.org/2000/svg" width="598" height="598" viewBox="0 0 598 598" fill="none"> <path d="M598 299C598 464.133 464.133 598 299 598C133.867 598 0 464.133 0 299C0 133.867 133.867 0 299 0C464.133 0 598 133.867 598 299Z" fill="#F0324C"></path> <path d="M492.361 310.713H458.723V254.649C458.723 252.864 458.014 251.153 456.752 249.891C455.491 248.63 453.779 247.921 451.995 247.921H346.594V191.857C346.594 190.072 345.885 188.361 344.624 187.099C343.362 185.838 341.651 185.129 339.866 185.129H111.124C109.339 185.129 107.628 185.838 106.366 187.099C105.105 188.361 104.396 190.072 104.396 191.857V402.659C104.396 404.443 105.105 406.154 106.366 407.416C107.628 408.678 109.339 409.386 111.124 409.386H162.344C163.26 417.793 167.248 425.566 173.543 431.212C179.838 436.859 187.997 439.982 196.454 439.982C204.91 439.982 213.069 436.859 219.364 431.212C225.659 425.566 229.647 417.793 230.563 409.386H381.04C381.956 417.805 385.95 425.588 392.253 431.242C398.557 436.897 406.726 440.024 415.194 440.024C423.662 440.024 431.832 436.897 438.136 431.242C444.439 425.588 448.432 417.805 449.349 409.386H492.361C494.146 409.386 495.857 408.678 497.119 407.416C498.38 406.154 499.089 404.443 499.089 402.659V317.441C499.089 315.656 498.38 313.945 497.119 312.684C495.857 311.422 494.146 310.713 492.361 310.713V310.713ZM196.342 426.609C192.202 426.627 188.151 425.415 184.701 423.127C181.251 420.84 178.558 417.579 176.964 413.759C175.369 409.939 174.945 405.731 175.745 401.67C176.545 397.608 178.533 393.876 181.457 390.946C184.381 388.015 188.109 386.019 192.169 385.211C196.228 384.402 200.437 384.817 204.261 386.403C208.084 387.989 211.351 390.675 213.646 394.12C215.941 397.565 217.161 401.614 217.153 405.753C217.141 411.243 214.971 416.507 211.111 420.409C207.25 424.312 202.01 426.539 196.521 426.609H196.342ZM196.342 371.397C188.977 371.443 181.821 373.851 175.927 378.268C170.033 382.684 165.712 388.875 163.6 395.931H117.851V198.584H333.139V395.931H229.352C227.242 388.857 222.909 382.651 216.996 378.232C211.082 373.813 203.903 371.417 196.521 371.397H196.342ZM415.172 426.609C411.036 426.609 406.993 425.382 403.555 423.084C400.117 420.785 397.438 417.518 395.858 413.697C394.277 409.875 393.866 405.67 394.676 401.614C395.486 397.559 397.481 393.835 400.409 390.914C403.336 387.992 407.065 386.005 411.122 385.204C415.179 384.402 419.383 384.823 423.201 386.412C427.02 388 430.281 390.686 432.572 394.129C434.863 397.572 436.082 401.618 436.073 405.753C436.061 411.289 433.854 416.593 429.935 420.503C426.017 424.413 420.707 426.609 415.172 426.609ZM485.634 395.931H448.093C445.943 388.906 441.595 382.757 435.689 378.388C429.783 374.02 422.63 371.662 415.284 371.662C407.938 371.662 400.785 374.02 394.879 378.388C388.973 382.757 384.625 388.906 382.475 395.931H346.594V261.376H445.267V317.441C445.267 319.225 445.976 320.936 447.238 322.198C448.499 323.46 450.211 324.169 451.995 324.169H485.634V395.931Z" fill="white"></path> <path d="M147.005 265.861H283.802L261.376 288.287C260.715 288.903 260.185 289.646 259.818 290.471C259.45 291.296 259.252 292.187 259.236 293.09C259.22 293.994 259.386 294.891 259.725 295.729C260.063 296.566 260.567 297.327 261.206 297.966C261.844 298.605 262.605 299.109 263.443 299.447C264.281 299.786 265.178 299.952 266.082 299.936C266.985 299.92 267.876 299.722 268.701 299.354C269.526 298.987 270.269 298.457 270.885 297.796L301.07 267.61C302.33 266.349 303.037 264.639 303.037 262.856C303.037 261.073 302.33 259.363 301.07 258.102L270.885 227.917C270.249 227.293 269.496 226.8 268.669 226.466C267.843 226.133 266.958 225.966 266.067 225.974C265.176 225.982 264.295 226.166 263.475 226.515C262.655 226.864 261.911 227.371 261.287 228.007C260.662 228.643 260.169 229.396 259.836 230.222C259.503 231.049 259.335 231.933 259.344 232.824C259.352 233.716 259.536 234.597 259.885 235.417C260.233 236.237 260.74 236.981 261.376 237.605L276.177 252.406H147.005C145.221 252.406 143.51 253.115 142.248 254.376C140.986 255.638 140.277 257.349 140.277 259.134C140.277 260.918 140.986 262.629 142.248 263.891C143.51 265.152 145.221 265.861 147.005 265.861Z" fill="white"></path> <path d="M292.772 330.896C292.772 329.112 292.063 327.401 290.802 326.139C289.54 324.877 287.829 324.168 286.044 324.168H149.696L171.673 302.236C172.295 301.606 172.786 300.859 173.119 300.039C173.452 299.219 173.62 298.342 173.613 297.457C173.607 296.572 173.427 295.696 173.082 294.881C172.738 294.066 172.236 293.326 171.606 292.705C170.976 292.084 170.229 291.593 169.409 291.26C168.589 290.927 167.712 290.759 166.826 290.765C165.941 290.771 165.066 290.952 164.251 291.296C163.436 291.64 162.696 292.142 162.075 292.772L131.89 322.957C130.63 324.219 129.922 325.929 129.922 327.712C129.922 329.495 130.63 331.204 131.89 332.466L162.075 362.651C163.342 363.924 165.062 364.641 166.858 364.645C168.654 364.65 170.378 363.94 171.651 362.673C172.924 361.407 173.641 359.686 173.645 357.89C173.649 356.094 172.94 354.37 171.673 353.098L156.155 337.624H286.224C287.977 337.577 289.642 336.848 290.865 335.591C292.089 334.334 292.773 332.65 292.772 330.896V330.896Z" fill="white"></path> </svg> 