<?xml version="1.0" encoding="UTF-8"?> <svg xmlns="http://www.w3.org/2000/svg" width="101" height="101" viewBox="0 0 101 101" fill="none"> <path d="M79.5 24H86.5C86.8978 24 87.2794 23.842 87.5607 23.5607C87.842 23.2794 88 22.8978 88 22.5C88 22.1022 87.842 21.7206 87.5607 21.4393C87.2794 21.158 86.8978 21 86.5 21H76.5C76.1022 21 75.7207 21.158 75.4394 21.4393C75.158 21.7206 75 22.1022 75 22.5V32.5C75 32.8978 75.158 33.2794 75.4394 33.5607C75.7207 33.842 76.1022 34 76.5 34C76.8978 34 77.2794 33.842 77.5607 33.5607C77.842 33.2794 78 32.8978 78 32.5V26.81C83.8363 33.5139 87.0351 42.1116 87 51C87 58.3179 84.83 65.4715 80.7644 71.5561C76.6988 77.6407 70.9202 82.3831 64.1593 85.1835C57.3984 87.984 49.959 88.7167 42.7817 87.2891C35.6044 85.8614 29.0116 82.3375 23.8371 77.1629C18.6625 71.9884 15.1386 65.3956 13.711 58.2183C12.2833 51.041 13.016 43.6016 15.8165 36.8407C18.6169 30.0798 23.3593 24.3012 29.4439 20.2356C35.5285 16.17 42.6821 14 50 14C50.3978 14 50.7794 13.842 51.0607 13.5607C51.342 13.2794 51.5 12.8978 51.5 12.5C51.5 12.1022 51.342 11.7206 51.0607 11.4393C50.7794 11.158 50.3978 11 50 11C42.0888 11 34.3552 13.346 27.7772 17.7412C21.1992 22.1365 16.0723 28.3836 13.0448 35.6927C10.0173 43.0017 9.2252 51.0444 10.7686 58.8036C12.312 66.5629 16.1216 73.6902 21.7157 79.2843C27.3098 84.8784 34.4372 88.688 42.1964 90.2314C49.9556 91.7748 57.9983 90.9827 65.3074 87.9552C72.6164 84.9277 78.8635 79.8008 83.2588 73.2228C87.6541 66.6448 90 58.9113 90 51C90.0368 40.9967 86.2854 31.3502 79.5 24V24Z" fill="#F0324C"></path> <path d="M23 51.5C23 56.939 24.6128 62.2558 27.6346 66.7782C30.6563 71.3005 34.9512 74.8253 39.9762 76.9067C45.0012 78.9881 50.5305 79.5327 55.865 78.4716C61.1995 77.4105 66.0995 74.7914 69.9454 70.9454C73.7914 67.0995 76.4105 62.1995 77.4716 56.865C78.5327 51.5305 77.9881 46.0012 75.9067 40.9762C73.8253 35.9512 70.3005 31.6563 65.7782 28.6346C61.2558 25.6128 55.939 24 50.5 24C43.209 24.0079 36.2189 26.9078 31.0633 32.0633C25.9078 37.2189 23.0079 44.209 23 51.5V51.5ZM75 51.5C75 56.3456 73.5631 61.0825 70.871 65.1115C68.1789 69.1405 64.3525 72.2807 59.8757 74.135C55.399 75.9894 50.4728 76.4746 45.7203 75.5292C40.9678 74.5839 36.6023 72.2505 33.1759 68.8241C29.7495 65.3977 27.4161 61.0322 26.4708 56.2797C25.5254 51.5272 26.0106 46.601 27.865 42.1243C29.7193 37.6475 32.8595 33.8211 36.8885 31.129C40.9175 28.4369 45.6544 27 50.5 27C56.9954 27.0079 63.2224 29.5917 67.8153 34.1847C72.4083 38.7776 74.9921 45.0046 75 51.5V51.5Z" fill="#F0324C"></path> <path d="M49 34.5V51.5C49.0003 51.7965 49.0884 52.0862 49.2532 52.3327C49.4181 52.5791 49.6522 52.7712 49.9262 52.8846C50.2001 52.998 50.5015 53.0277 50.7923 52.9699C51.0831 52.9122 51.3502 52.7695 51.56 52.56L64.56 39.56C64.825 39.2757 64.9692 38.8996 64.9623 38.511C64.9555 38.1224 64.7981 37.7516 64.5232 37.4768C64.2484 37.2019 63.8776 37.0445 63.489 37.0377C63.1004 37.0308 62.7243 37.175 62.44 37.44L52 47.88V34.5C52 34.1022 51.842 33.7206 51.5607 33.4393C51.2794 33.158 50.8978 33 50.5 33C50.1022 33 49.7206 33.158 49.4393 33.4393C49.158 33.7206 49 34.1022 49 34.5Z" fill="#F0324C"></path> </svg> 