<?xml version="1.0" encoding="UTF-8"?> <svg xmlns="http://www.w3.org/2000/svg" width="598" height="598" viewBox="0 0 598 598" fill="none"> <path d="M598 299C598 464.133 464.133 598 299 598C133.867 598 0 464.133 0 299C0 133.867 133.867 0 299 0C464.133 0 598 133.867 598 299Z" fill="#F0324C"></path> <path d="M491.195 178.625C490.56 177.849 489.759 177.224 488.851 176.797C487.943 176.371 486.951 176.152 485.948 176.158H229.98C228.436 176.156 226.937 176.685 225.737 177.657C224.536 178.629 223.706 179.984 223.387 181.496L173.602 419.209C173.392 420.201 173.409 421.227 173.652 422.211C173.895 423.196 174.357 424.113 175.004 424.893C175.651 425.674 176.466 426.298 177.388 426.72C178.311 427.141 179.316 427.349 180.33 427.327H436.297C437.842 427.329 439.34 426.8 440.541 425.828C441.742 424.856 442.571 423.501 442.89 421.989L492.676 184.276C492.869 183.284 492.837 182.26 492.581 181.282C492.325 180.303 491.851 179.395 491.195 178.625V178.625ZM304.613 189.614H410.597L402.973 234.465H296.989L304.613 189.614ZM430.691 413.871H188.493L235.587 189.614H290.934L282.367 240.072C282.204 241.037 282.253 242.026 282.512 242.97C282.77 243.914 283.232 244.79 283.864 245.537C284.496 246.285 285.283 246.885 286.171 247.297C287.059 247.708 288.026 247.921 289.005 247.921H408.669C410.259 247.922 411.799 247.359 413.014 246.333C414.229 245.306 415.042 243.883 415.307 242.314L424.277 189.614H477.65L430.691 413.871Z" fill="white"></path> <path d="M120.094 198.584H187.371C189.155 198.584 190.867 197.876 192.128 196.614C193.39 195.352 194.099 193.641 194.099 191.857C194.099 190.072 193.39 188.361 192.128 187.099C190.867 185.838 189.155 185.129 187.371 185.129H120.094C118.31 185.129 116.598 185.838 115.337 187.099C114.075 188.361 113.366 190.072 113.366 191.857C113.366 193.641 114.075 195.352 115.337 196.614C116.598 197.876 118.31 198.584 120.094 198.584V198.584Z" fill="white"></path> <path d="M115.609 270.346H173.916C175.7 270.346 177.412 269.637 178.673 268.376C179.935 267.114 180.644 265.403 180.644 263.618C180.644 261.834 179.935 260.123 178.673 258.861C177.412 257.599 175.7 256.891 173.916 256.891H115.609C113.825 256.891 112.114 257.599 110.852 258.861C109.59 260.123 108.881 261.834 108.881 263.618C108.881 265.403 109.59 267.114 110.852 268.376C112.114 269.637 113.825 270.346 115.609 270.346Z" fill="white"></path> <path d="M164.946 324.168H115.609C113.825 324.168 112.114 324.877 110.852 326.138C109.59 327.4 108.881 329.111 108.881 330.896C108.881 332.68 109.59 334.391 110.852 335.653C112.114 336.915 113.825 337.623 115.609 337.623H164.946C166.73 337.623 168.441 336.915 169.703 335.653C170.965 334.391 171.673 332.68 171.673 330.896C171.673 329.111 170.965 327.4 169.703 326.138C168.441 324.877 166.73 324.168 164.946 324.168V324.168Z" fill="white"></path> <path d="M151.49 400.416H115.609C113.825 400.416 112.114 401.125 110.852 402.387C109.59 403.648 108.881 405.359 108.881 407.144C108.881 408.928 109.59 410.639 110.852 411.901C112.114 413.163 113.825 413.871 115.609 413.871H151.49C153.275 413.871 154.986 413.163 156.247 411.901C157.509 410.639 158.218 408.928 158.218 407.144C158.218 405.359 157.509 403.648 156.247 402.387C154.986 401.125 153.275 400.416 151.49 400.416Z" fill="white"></path> <path d="M390.683 303.806C388.971 303.352 387.148 303.592 385.611 304.473C384.075 305.355 382.948 306.807 382.475 308.515L365.88 369.513C365.595 370.38 365.489 371.296 365.568 372.205C365.648 373.114 365.911 373.997 366.343 374.801C366.775 375.605 367.366 376.313 368.08 376.882C368.794 377.45 369.616 377.867 370.496 378.108C371.377 378.349 372.297 378.408 373.2 378.281C374.104 378.155 374.973 377.846 375.754 377.374C376.535 376.901 377.211 376.275 377.742 375.533C378.273 374.79 378.647 373.948 378.842 373.056L395.393 312.058C395.86 310.339 395.627 308.505 394.744 306.958C393.861 305.411 392.401 304.278 390.683 303.806Z" fill="white"></path> <path d="M332.376 303.806C330.664 303.352 328.841 303.592 327.304 304.473C325.768 305.355 324.641 306.807 324.168 308.515L307.573 369.513C307.288 370.38 307.181 371.296 307.261 372.205C307.341 373.114 307.604 373.997 308.036 374.801C308.468 375.605 309.059 376.313 309.773 376.882C310.487 377.45 311.309 377.867 312.189 378.108C313.069 378.349 313.99 378.408 314.893 378.281C315.797 378.155 316.666 377.846 317.447 377.374C318.227 376.901 318.904 376.275 319.435 375.533C319.966 374.79 320.34 373.948 320.535 373.056L337.086 312.058C337.553 310.339 337.32 308.505 336.437 306.958C335.554 305.411 334.094 304.278 332.376 303.806V303.806Z" fill="white"></path> <path d="M274.069 303.806C272.356 303.352 270.534 303.592 268.997 304.473C267.46 305.355 266.334 306.807 265.861 308.515L249.266 369.513C248.981 370.38 248.874 371.296 248.954 372.205C249.033 373.114 249.297 373.997 249.729 374.801C250.161 375.605 250.752 376.313 251.465 376.882C252.179 377.45 253.002 377.867 253.882 378.108C254.762 378.349 255.682 378.408 256.586 378.281C257.49 378.155 258.359 377.846 259.14 377.374C259.92 376.901 260.597 376.275 261.128 375.533C261.659 374.79 262.033 373.948 262.228 373.056L278.778 312.058C279.246 310.339 279.013 308.505 278.13 306.958C277.247 305.411 275.787 304.278 274.069 303.806Z" fill="white"></path> </svg> 