<?xml version="1.0" encoding="UTF-8"?> <svg xmlns="http://www.w3.org/2000/svg" width="598" height="598" viewBox="0 0 598 598" fill="none"> <path d="M598 299C598 464.133 464.133 598 299 598C133.867 598 0 464.133 0 299C0 133.867 133.867 0 299 0C464.133 0 598 133.867 598 299Z" fill="#F0324C"></path> <path d="M169.431 221.01C167.647 221.01 165.935 221.719 164.674 222.98C163.412 224.242 162.703 225.953 162.703 227.737V371.262C162.703 373.047 163.412 374.758 164.674 376.019C165.935 377.281 167.647 377.99 169.431 377.99C171.215 377.99 172.926 377.281 174.188 376.019C175.45 374.758 176.159 373.047 176.159 371.262V227.737C176.159 225.953 175.45 224.242 174.188 222.98C172.926 221.719 171.215 221.01 169.431 221.01Z" fill="white"></path> <path d="M205.312 221.01C203.527 221.01 201.816 221.719 200.554 222.98C199.293 224.242 198.584 225.953 198.584 227.737V371.262C198.584 373.047 199.293 374.758 200.554 376.019C201.816 377.281 203.527 377.99 205.312 377.99C207.096 377.99 208.807 377.281 210.069 376.019C211.331 374.758 212.039 373.047 212.039 371.262V227.737C212.039 225.953 211.331 224.242 210.069 222.98C208.807 221.719 207.096 221.01 205.312 221.01V221.01Z" fill="white"></path> <path d="M227.737 221.01C225.953 221.01 224.242 221.719 222.98 222.98C221.719 224.242 221.01 225.953 221.01 227.737V371.262C221.01 373.047 221.719 374.758 222.98 376.019C224.242 377.281 225.953 377.99 227.737 377.99C229.522 377.99 231.233 377.281 232.495 376.019C233.756 374.758 234.465 373.047 234.465 371.262V227.737C234.465 225.953 233.756 224.242 232.495 222.98C231.233 221.719 229.522 221.01 227.737 221.01Z" fill="white"></path> <path d="M357.807 221.01C356.023 221.01 354.311 221.719 353.05 222.98C351.788 224.242 351.079 225.953 351.079 227.737V371.262C351.079 373.047 351.788 374.758 353.05 376.019C354.311 377.281 356.023 377.99 357.807 377.99C359.591 377.99 361.302 377.281 362.564 376.019C363.826 374.758 364.535 373.047 364.535 371.262V227.737C364.535 225.953 363.826 224.242 362.564 222.98C361.302 221.719 359.591 221.01 357.807 221.01V221.01Z" fill="white"></path> <path d="M380.233 221.01C378.448 221.01 376.737 221.719 375.475 222.98C374.214 224.242 373.505 225.953 373.505 227.737V371.262C373.505 373.047 374.214 374.758 375.475 376.019C376.737 377.281 378.448 377.99 380.233 377.99C382.017 377.99 383.728 377.281 384.99 376.019C386.252 374.758 386.96 373.047 386.96 371.262V227.737C386.96 225.953 386.252 224.242 384.99 222.98C383.728 221.719 382.017 221.01 380.233 221.01Z" fill="white"></path> <path d="M277.074 221.01C275.29 221.01 273.579 221.719 272.317 222.98C271.055 224.242 270.347 225.953 270.347 227.737V371.262C270.347 373.047 271.055 374.758 272.317 376.019C273.579 377.281 275.29 377.99 277.074 377.99C278.859 377.99 280.57 377.281 281.832 376.019C283.093 374.758 283.802 373.047 283.802 371.262V227.737C283.802 225.953 283.093 224.242 281.832 222.98C280.57 221.719 278.859 221.01 277.074 221.01Z" fill="white"></path> <path d="M321.926 221.01C320.142 221.01 318.43 221.719 317.169 222.98C315.907 224.242 315.198 225.953 315.198 227.737V371.262C315.198 373.047 315.907 374.758 317.169 376.019C318.43 377.281 320.142 377.99 321.926 377.99C323.71 377.99 325.421 377.281 326.683 376.019C327.945 374.758 328.654 373.047 328.654 371.262V227.737C328.654 225.953 327.945 224.242 326.683 222.98C325.421 221.719 323.71 221.01 321.926 221.01Z" fill="white"></path> <path d="M440.782 371.262V227.737C440.782 225.953 440.073 224.242 438.812 222.98C437.55 221.719 435.839 221.01 434.054 221.01C432.27 221.01 430.559 221.719 429.297 222.98C428.035 224.242 427.327 225.953 427.327 227.737V371.262C427.327 373.047 428.035 374.758 429.297 376.019C430.559 377.281 432.27 377.99 434.054 377.99C435.839 377.99 437.55 377.281 438.812 376.019C440.073 374.758 440.782 373.047 440.782 371.262Z" fill="white"></path> <path d="M120.094 243.436C121.878 243.436 123.589 242.727 124.851 241.465C126.113 240.204 126.822 238.492 126.822 236.708V198.584H164.945C166.73 198.584 168.441 197.876 169.703 196.614C170.964 195.352 171.673 193.641 171.673 191.857C171.673 190.072 170.964 188.361 169.703 187.099C168.441 185.838 166.73 185.129 164.945 185.129H120.094C118.31 185.129 116.598 185.838 115.337 187.099C114.075 188.361 113.366 190.072 113.366 191.857V236.708C113.366 238.492 114.075 240.204 115.337 241.465C116.598 242.727 118.31 243.436 120.094 243.436Z" fill="white"></path> <path d="M483.391 185.129H438.54C436.755 185.129 435.044 185.838 433.783 187.099C432.521 188.361 431.812 190.072 431.812 191.857C431.812 193.641 432.521 195.352 433.783 196.614C435.044 197.876 436.755 198.584 438.54 198.584H476.663V236.708C476.663 238.492 477.372 240.204 478.634 241.465C479.896 242.727 481.607 243.436 483.391 243.436C485.176 243.436 486.887 242.727 488.148 241.465C489.41 240.204 490.119 238.492 490.119 236.708V191.857C490.119 190.072 489.41 188.361 488.148 187.099C486.887 185.838 485.176 185.129 483.391 185.129V185.129Z" fill="white"></path> <path d="M164.945 404.901H126.822V371.262C126.822 369.478 126.113 367.766 124.851 366.505C123.589 365.243 121.878 364.534 120.094 364.534C118.31 364.534 116.598 365.243 115.337 366.505C114.075 367.766 113.366 369.478 113.366 371.262V411.628C113.366 413.413 114.075 415.124 115.337 416.385C116.598 417.647 118.31 418.356 120.094 418.356H164.945C166.73 418.356 168.441 417.647 169.703 416.385C170.964 415.124 171.673 413.413 171.673 411.628C171.673 409.844 170.964 408.133 169.703 406.871C168.441 405.609 166.73 404.901 164.945 404.901Z" fill="white"></path> <path d="M483.391 364.534C481.607 364.534 479.896 365.243 478.634 366.505C477.372 367.766 476.663 369.478 476.663 371.262V404.901H438.54C436.755 404.901 435.044 405.609 433.783 406.871C432.521 408.133 431.812 409.844 431.812 411.628C431.812 413.413 432.521 415.124 433.783 416.385C435.044 417.647 436.755 418.356 438.54 418.356H483.391C485.176 418.356 486.887 417.647 488.148 416.385C489.41 415.124 490.119 413.413 490.119 411.628V371.262C490.119 369.478 489.41 367.766 488.148 366.505C486.887 365.243 485.176 364.534 483.391 364.534Z" fill="white"></path> </svg> 