<?xml version="1.0" encoding="UTF-8"?> <svg xmlns="http://www.w3.org/2000/svg" width="101" height="101" viewBox="0 0 101 101" fill="none"> <path d="M64.7 35.835L33.309 60.822C32.661 61.338 32.554 62.282 33.069 62.93C33.365 63.302 33.802 63.496 34.244 63.496C34.571 63.496 34.901 63.39 35.177 63.17L66.568 38.183C67.216 37.667 67.323 36.723 66.808 36.075C66.293 35.427 65.349 35.319 64.7 35.835Z" fill="#F0324C"></path> <path d="M37.131 45.3071C38.481 46.2931 40.073 46.8101 41.714 46.8101C42.116 46.8101 42.522 46.7791 42.927 46.7161C47.173 46.0551 50.091 42.0631 49.432 37.8171C48.771 33.5701 44.777 30.6521 40.533 31.3131C36.286 31.9731 33.368 35.9651 34.029 40.2111C34.348 42.2681 35.449 44.0791 37.131 45.3071ZM40.993 34.2771C41.241 34.2381 41.488 34.2191 41.732 34.2191C44.053 34.2191 46.099 35.9141 46.467 38.2781C46.873 40.8901 45.078 43.3461 42.466 43.7521C41.198 43.9491 39.934 43.6411 38.901 42.8851C37.867 42.1301 37.189 41.0161 36.993 39.7511C36.587 37.1391 38.381 34.6831 40.993 34.2771Z" fill="#F0324C"></path> <path d="M58.221 52.1357C53.922 52.1357 50.424 55.6327 50.424 59.9307C50.424 64.2287 53.922 67.7247 58.221 67.7247C62.52 67.7247 66.0169 64.2277 66.0169 59.9307C66.0179 55.6327 62.52 52.1357 58.221 52.1357ZM58.221 64.7247C55.576 64.7247 53.424 62.5737 53.424 59.9307C53.424 57.2867 55.576 55.1357 58.221 55.1357C60.866 55.1357 63.0169 57.2867 63.0169 59.9307C63.0179 62.5747 60.866 64.7247 58.221 64.7247Z" fill="#F0324C"></path> <path d="M88.283 41.2371C85.31 39.7561 82.237 38.2241 81.399 36.2441C80.544 34.2231 81.72 31.0071 82.857 27.8971C84.401 23.6731 85.999 19.3061 83.1 16.4091C80.248 13.5561 76.018 14.5371 71.926 15.4871C68.996 16.1671 65.966 16.8701 63.906 15.9991C61.9 15.1491 60.26 12.5621 58.674 10.0601C56.427 6.51507 53.881 2.49707 49.521 2.49707C45.153 2.49707 42.656 6.60407 40.453 10.2281C38.89 12.7991 37.273 15.4581 35.268 16.3061C33.211 17.1761 30.146 16.4041 27.181 15.6591C23.058 14.6221 18.795 13.5511 15.939 16.4091C13.055 19.2911 14.475 23.6831 15.849 27.9311C16.854 31.0371 17.892 34.2491 17.031 36.2851C16.193 38.2701 13.255 39.7881 10.414 41.2571C6.482 43.2901 2.026 45.5941 2.026 49.9901C2.026 54.3721 6.309 56.7681 10.088 58.8821C12.795 60.3961 15.594 61.9621 16.438 63.9561C17.303 66.0011 16.397 69.1441 15.522 72.1831C14.315 76.3711 13.067 80.7031 15.939 83.5731C18.899 86.5321 23.644 84.0691 28.233 81.6841C31.568 79.9521 35.349 77.9861 37.315 78.8191C39.234 79.6311 40.52 83.5961 41.655 87.0941C43.311 92.2011 45.025 97.4831 49.522 97.4831C54.024 97.4831 55.681 92.1961 57.283 87.0831C58.383 83.5741 59.63 79.5961 61.547 78.7861C63.513 77.9551 67.337 79.9261 70.71 81.6661C75.348 84.0591 80.143 86.5321 83.101 83.5741C86.002 80.6741 84.413 76.3681 82.877 72.2031C81.748 69.1411 80.58 65.9751 81.433 63.9561C82.272 61.9731 85.335 60.3971 88.297 58.8731C92.582 56.6681 97.013 54.3891 97.013 49.9901C97.01 45.5861 92.573 43.3751 88.283 41.2371ZM86.922 56.2061C83.485 57.9741 79.931 59.8031 78.668 62.7891C77.353 65.9011 78.73 69.6331 80.061 73.2421C81.326 76.6721 82.521 79.9111 80.978 81.4531C79.57 82.8621 75.592 80.8111 72.084 79.0011C67.932 76.8591 63.639 74.6451 60.377 76.0241C57.181 77.3751 55.776 81.8551 54.419 86.1881C53.141 90.2671 51.819 94.4851 49.521 94.4851C47.204 94.4851 45.833 90.2581 44.507 86.1701C43.109 81.8601 41.664 77.4031 38.483 76.0581C37.777 75.7591 37.025 75.6281 36.238 75.6281C33.384 75.6281 30.074 77.3481 26.849 79.0231C23.389 80.8221 19.465 82.8601 18.059 81.4531C16.439 79.8341 17.393 76.5221 18.404 73.0151C19.424 69.4741 20.479 65.8131 19.2 62.7881C17.955 59.8471 14.7 58.0261 11.552 56.2651C8.196 54.3881 5.026 52.6141 5.026 49.9921C5.026 47.4221 8.312 45.7221 11.792 43.9241C15.106 42.2101 18.534 40.4381 19.794 37.4551C21.09 34.3911 19.877 30.6391 18.703 27.0101C17.557 23.4661 16.474 20.1171 18.06 18.5331C19.714 16.8771 22.986 17.7001 26.45 18.5711C29.894 19.4381 33.458 20.3341 36.437 19.0721C39.333 17.8481 41.206 14.7681 43.017 11.7891C44.983 8.55507 46.84 5.50007 49.521 5.50007C52.23 5.50007 54.129 8.49707 56.14 11.6691C57.973 14.5601 59.867 17.5501 62.738 18.7651C65.697 20.0161 69.209 19.2011 72.605 18.4121C76.05 17.6131 79.304 16.8571 80.98 18.5331C82.525 20.0771 81.318 23.3761 80.041 26.8691C78.705 30.5251 77.322 34.3051 78.638 37.4151C79.908 40.4161 83.486 42.2001 86.947 43.9241C90.58 45.7351 94.012 47.4451 94.012 49.9921C94.01 52.5581 90.567 54.3301 86.922 56.2061Z" fill="#F0324C"></path> </svg> 